<?xml version="1.0" standalone="no"?>
<!DOCTYPE svg PUBLIC "-//W3C//DTD SVG 1.1//EN" "http://www.w3.org/Graphics/SVG/1.1/DTD/svg11.dtd" >
<svg xmlns="http://www.w3.org/2000/svg">
<metadata>Generated by IcoMoon</metadata>
<defs>
<font id="icomoon" horiz-adv-x="1024">
<font-face units-per-em="1024" ascent="960" descent="-64" />
<missing-glyph horiz-adv-x="1024" />
<glyph unicode="&#x20;" horiz-adv-x="512" d="" />
<glyph unicode="&#xe900;" glyph-name="add-tab" d="M981.333-64h-768c-23.552 0-42.667 19.115-42.667 42.667v768c0 23.552 19.115 42.667 42.667 42.667h768c23.552 0 42.667-19.115 42.667-42.667v-768c0-23.552-19.115-42.667-42.667-42.667zM938.667 704h-682.667v-682.667h682.667v682.667zM426.667 405.333h128v128c0 23.552 19.115 42.667 42.667 42.667s42.667-19.115 42.667-42.667v-128h128c23.552 0 42.667-19.115 42.667-42.667s-19.115-42.667-42.667-42.667h-128v-128c0-23.552-19.115-42.667-42.667-42.667s-42.667 19.115-42.667 42.667v128h-128c-23.552 0-42.667 19.115-42.667 42.667s19.115 42.667 42.667 42.667zM810.667 874.667h-725.333v-725.333c0-23.552-19.115-42.667-42.667-42.667s-42.667 19.115-42.667 42.667v768c0 23.552 19.115 42.667 42.667 42.667h768c23.552 0 42.667-19.115 42.667-42.667s-19.115-42.667-42.667-42.667z" />
<glyph unicode="&#xe901;" glyph-name="airplane-mode-off" horiz-adv-x="1037" d="M965.931 684.651c-0.39-0.39-0.953-0.52-1.343-0.91-0.433-0.39-0.607-0.91-1.040-1.3l-183.393-156.482v-255.892c0-6.717-1.863-12.87-4.68-18.547l244.885-243.151c16.771-16.641 16.771-43.681 0-60.322-8.407-8.32-19.414-12.524-30.378-12.524-11.007 0-22.014 4.203-30.378 12.524l-945.391 938.717c-16.771 16.684-16.771 43.681 0 60.365 16.814 16.641 43.985 16.641 60.799 0l247.138-245.405c5.504 2.557 11.527 4.247 18.071 4.247h258.795l168.355 168.572c103.093 102.357 207.053 83.983 239.814 51.438 14.994-14.864 30.248-48.275 30.291-89.226 0-36.965-12.35-93.343-71.546-152.105zM946.344 863.84c-13.26 3.683-58.285 9.88-118.087-49.532l-180.836-181.053c-8.060-8.104-19.067-12.61-30.508-12.61h-213.12l290.429-288.436v213.337c0 12.437 5.46 24.224 14.95 32.371l196.566 167.749c58.199 58.199 46.195 104.48 40.605 118.174zM46.802 680.014c10.617 21.061 36.358 29.641 57.635 19.067 21.234-10.53 29.858-36.141 19.241-57.245l-18.374-36.445 117.437-25.871c23.184-5.157 37.788-27.951 32.631-50.962-4.463-19.847-22.187-33.411-41.905-33.411-3.077 0-6.197 0.347-9.36 1.040l-171.172 37.745c-12.914 2.86-23.791 11.484-29.468 23.314-5.677 11.874-5.547 25.698 0.347 37.398l42.988 85.369zM99.713 289.395c7.887 6.89 17.984 10.704 28.471 10.704h107.297l85.196 114.274c14.127 18.894 41.038 22.924 60.105 8.84 19.111-13.997 23.097-40.691 8.97-59.629l-98.11-131.521c-8.104-10.877-20.931-17.291-34.538-17.291h-112.584l-12.697-11.18 59.412-14.734c1.083 0.347 1.907 1.127 3.033 1.43 17.594 4.333 35.318-2.903 45.285-16.771 13.607-9.967 20.627-27.388 16.294-44.678-0.26-0.953-0.867-1.647-1.17-2.557l21.017-83.506 5.504 3.077v145.691c0 13.78 6.717 26.738 17.984 34.711l125.887 89.356c19.284 13.737 46.108 9.274 59.932-9.924 13.824-19.154 9.36-45.805-9.967-59.499l-107.904-76.572v-148.725c0-15.427-8.364-29.684-21.927-37.181l-76.486-42.685c-6.5-3.64-13.78-5.504-21.061-5.504-5.764 0-11.527 1.17-16.987 3.51-12.307 5.244-21.451 15.947-24.701 28.818l-34.711 137.978-139.408 34.624c-15.471 3.857-27.561 15.904-31.331 31.244-3.77 15.427 1.3 31.591 13.26 42.078l85.933 75.619zM596.763 188.685c23.141 5.070 46.108-9.404 51.265-32.414l25.828-115.444 36.705 18.201c21.321 10.574 47.062 1.993 57.679-19.067s1.993-46.715-19.241-57.245l-85.933-42.641c-6.024-3.033-12.61-4.55-19.197-4.55-6.327 0-12.654 1.387-18.461 4.16-11.96 5.677-20.627 16.424-23.487 29.294l-37.788 168.789c-5.157 23.011 9.49 45.805 32.631 50.918z" />
<glyph unicode="&#xe902;" glyph-name="airplane-mode" d="M953.085 700.219c-0.684-0.769-0.94-1.752-1.666-2.435l-184.038-179.681v-495.852c0-16.234-9.142-31.1-23.581-38.363l-85.654-42.806c-11.705-5.853-25.461-6.024-37.252-0.299-11.791 5.682-20.335 16.533-23.197 29.391l-69.975 318.264-143.070-115.43v-150.759c0-16.234-9.142-31.1-23.624-38.363l-85.611-42.806c-5.981-2.99-12.432-4.486-18.925-4.486-6.066 0-12.175 1.282-17.814 3.973-11.705 5.425-20.292 15.892-23.453 28.494l-34.774 140.079-146.316 32.467c-15.636 3.503-28.024 15.507-32.040 31.143-4.016 15.593 1.025 32.168 13.030 42.848l85.056 75.529c7.818 6.878 17.814 10.68 28.153 10.68h106.843l116.412 150.033-318.051 75.401c-13.030 3.076-23.838 12.175-29.221 24.521s-4.656 26.529 1.965 38.277l42.506 75.529c7.561 13.457 20.036 38.106 35.329 38.106h512.641l161.824 176.733c65.575 66.045 124.572 79.716 162.763 79.716 0.043 0 0.085 0 0.171 0 30.929 0 58.484-9.185 73.692-24.564 13.030-13.030 28.452-42.976 28.494-84.073 0.043-36.184-12.346-91.635-70.616-151.272zM935.057 872.851c-13.457 3.204-56.775 7.006-115.472-52.118l-192.497-205.654c-8.074-8.587-18.626 3.161-30.331 3.161h-469.921l-18.541-20.719 327.449-77.622c14.14-3.332 25.589-13.713 30.374-27.469 4.827-13.799 2.35-29.092-6.579-40.584l-170.111-219.239c-8.074-10.381-20.42-16.447-33.535-16.447h-111.499l-10.167-9.014 68.566-15.251c0.342 0.085 0.555 0.342 0.854 0.427 22.813 5.682 45.881-8.245 51.563-31.186l29.733-119.659 14.653 7.348v144.778c0 12.987 5.853 25.248 15.977 33.407l212.319 171.307c11.492 9.27 26.871 11.876 40.712 6.963 13.884-4.87 24.222-16.661 27.384-31.1l73.009-332.063 13.329 6.707v487.393c0 11.577 4.699 22.684 12.944 30.758l194.889 190.318c0.427 0.47 0.555 1.068 1.025 1.538 57.629 58.057 48.957 100.52 43.874 114.020z" />
<glyph unicode="&#xe903;" glyph-name="align-bottom" horiz-adv-x="853" d="M810.667-64h-768c-23.552 0-42.667 19.115-42.667 42.667s19.115 42.667 42.667 42.667h768c23.552 0 42.667-19.115 42.667-42.667s-19.115-42.667-42.667-42.667zM456.832 76.501c-3.925-3.925-8.619-7.040-13.867-9.216-5.205-2.176-10.752-3.285-16.299-3.285s-11.093 1.109-16.299 3.285c-5.248 2.176-9.941 5.291-13.909 9.216l-170.624 170.667c-16.683 16.64-16.683 43.648 0 60.331s43.648 16.683 60.331 0l97.835-97.835v707.669c0 23.552 19.115 42.667 42.667 42.667s42.667-19.115 42.667-42.667v-707.669l97.835 97.835c16.683 16.683 43.648 16.683 60.331 0s16.683-43.691 0-60.331l-170.667-170.667z" />
<glyph unicode="&#xe904;" glyph-name="align-left" d="M981.333 405.333h-707.669l97.835-97.835c16.683-16.683 16.683-43.691 0-60.331-8.32-8.32-19.243-12.501-30.165-12.501s-21.845 4.181-30.165 12.501l-170.581 170.624c-3.968 3.925-7.125 8.661-9.301 13.909-2.133 5.205-3.243 10.667-3.243 16.171 0 0.043-0.043 0.085-0.043 0.128 0 0 0 0 0 0 0 5.547 1.152 11.093 3.285 16.299 2.176 5.248 5.291 9.941 9.216 13.867 0 0 0 0 0 0l170.667 170.667c16.683 16.683 43.648 16.683 60.331 0 16.683-16.64 16.683-43.691 0-60.331l-97.835-97.835h707.669c23.595 0 42.667-19.115 42.667-42.667s-19.072-42.667-42.667-42.667zM42.667 21.333c-23.595 0-42.667 19.115-42.667 42.667v768c0 23.552 19.072 42.667 42.667 42.667s42.667-19.115 42.667-42.667v-768c0-23.552-19.072-42.667-42.667-42.667z" />
<glyph unicode="&#xe905;" glyph-name="align-right" d="M981.333 21.333c-23.552 0-42.667 19.115-42.667 42.667v768c0 23.552 19.115 42.667 42.667 42.667s42.667-19.115 42.667-42.667v-768c0-23.552-19.115-42.667-42.667-42.667zM892.715 431.701c-2.176-5.248-5.291-9.941-9.216-13.867l-170.667-170.667c-8.32-8.32-19.243-12.501-30.165-12.501s-21.845 4.181-30.165 12.501c-16.683 16.64-16.683 43.691 0 60.331l97.835 97.835h-707.669c-23.552 0-42.667 19.115-42.667 42.667s19.115 42.667 42.667 42.667h707.669l-97.835 97.835c-16.683 16.64-16.683 43.691 0 60.331 16.683 16.683 43.648 16.683 60.331 0l170.667-170.667c3.925-3.925 7.040-8.619 9.216-13.867 2.133-5.163 3.243-10.667 3.285-16.171 0-0.043 0-0.085 0-0.128 0 0 0 0 0 0 0-5.547-1.152-11.093-3.285-16.299z" />
<glyph unicode="&#xe906;" glyph-name="align-top" horiz-adv-x="853" d="M810.667 874.667h-768c-23.552 0-42.667 19.115-42.667 42.667s19.115 42.667 42.667 42.667h768c23.552 0 42.667-19.115 42.667-42.667s-19.115-42.667-42.667-42.667zM396.459 819.456c3.925 3.925 8.661 7.083 13.909 9.259 10.411 4.309 22.187 4.309 32.597 0 5.248-2.176 9.984-5.333 13.909-9.259l170.624-170.624c16.683-16.64 16.683-43.691 0-60.331-8.32-8.363-19.243-12.501-30.165-12.501s-21.845 4.139-30.165 12.501l-97.835 97.835v-707.669c0-23.552-19.115-42.667-42.667-42.667s-42.667 19.115-42.667 42.667v707.669l-97.835-97.835c-16.683-16.683-43.648-16.683-60.331 0-16.683 16.64-16.683 43.691 0 60.331l170.624 170.624z" />
<glyph unicode="&#xe907;" glyph-name="backward" horiz-adv-x="900" d="M899.395 385.676c0-247.84-201.793-449.462-449.847-449.462-248.097 0-449.89 201.622-449.89 449.462 0 23.602 19.104 42.706 42.706 42.706 23.559 0 42.706-19.104 42.706-42.706 0-200.765 163.499-364.136 364.478-364.136 200.936 0 364.435 163.371 364.435 364.136 0 198.88-163.071 360.666-363.536 360.666h-5.654l54.528-54.485c16.705-16.663 16.705-43.691 0-60.354-8.31-8.353-19.275-12.508-30.198-12.508s-21.846 4.155-30.198 12.508l-128.118 127.989c-16.705 16.705-16.705 43.691 0 60.354l128.118 128.032c16.705 16.663 43.734 16.663 60.397 0 16.705-16.663 16.705-43.691 0-60.354l-55.899-55.856h7.025c247.583 0 448.948-200.037 448.948-445.992z" />
<glyph unicode="&#xe908;" glyph-name="ban" d="M512-64c-282.325 0-512 229.675-512 512s229.675 512 512 512c282.325 0 512-229.675 512-512s-229.675-512-512-512zM85.333 448c0-235.264 191.403-426.667 426.667-426.667 102.315 0 196.267 36.267 269.867 96.512l-600.021 600.021c-60.245-73.6-96.512-167.552-96.512-269.867zM512 874.667c-102.315 0-196.224-36.224-269.824-96.469l599.979-600.021c60.245 73.6 96.512 167.552 96.512 269.824 0 235.264-191.403 426.667-426.667 426.667z" />
<glyph unicode="&#xe909;" glyph-name="brightness-high" d="M981.333 405.333h-130.347c-8.192-62.123-33.579-118.571-70.4-165.589l102.912-102.912c16.683-16.64 16.683-43.691 0-60.331-8.32-8.32-19.243-12.501-30.165-12.501s-21.845 4.181-30.165 12.501l-103.125 103.125c-47.019-36.267-103.339-61.056-165.376-68.48v-132.48c0-23.552-19.115-42.667-42.667-42.667s-42.667 19.115-42.667 42.667v133.035c-61.525 8.064-117.248 33.152-163.797 69.547l-104.704-104.747c-8.32-8.32-19.243-12.501-30.165-12.501s-21.845 4.181-30.165 12.501c-16.683 16.64-16.683 43.648 0 60.331l104.875 104.96c-35.925 46.592-60.715 102.315-68.779 163.541h-133.931c-23.552 0-42.667 19.115-42.667 42.667s19.115 42.667 42.667 42.667h133.589c7.509 61.739 31.872 117.973 67.627 165.12l-103.381 103.381c-16.683 16.64-16.683 43.691 0 60.331 16.683 16.683 43.648 16.683 60.331 0l102.784-102.784c46.891 37.248 103.296 62.976 165.717 71.168v129.451c0 23.552 19.115 42.667 42.667 42.667s42.667-19.115 42.667-42.667v-128.896c62.933-7.552 119.893-32.939 167.339-70.101l101.163 101.163c16.683 16.683 43.648 16.683 60.331 0 16.683-16.64 16.683-43.691 0-60.331l-101.376-101.376c36.608-47.531 61.611-104.491 69.205-167.125h130.005c23.552 0 42.667-19.115 42.667-42.667s-19.115-42.667-42.667-42.667zM513.835 705.792c-141.184 0-256.043-114.859-256.043-256s114.859-256 256.043-256c141.184 0 256 114.859 256 256s-114.816 256-256 256zM512 277.333c-94.123 0-170.667 76.587-170.667 170.667s76.544 170.667 170.667 170.667c94.123 0 170.667-76.587 170.667-170.667s-76.544-170.667-170.667-170.667zM512 533.333c-47.061 0-85.333-38.272-85.333-85.333s38.272-85.333 85.333-85.333c47.061 0 85.333 38.272 85.333 85.333s-38.272 85.333-85.333 85.333z" />
<glyph unicode="&#xe90a;" glyph-name="brightness-low" d="M981.333 405.333h-131.968c-7.851-61.909-32.725-118.272-69.035-165.333l105.984-105.941c16.683-16.683 16.683-43.691 0-60.373-8.32-8.32-19.243-12.501-30.165-12.501-10.88 0-21.803 4.181-30.165 12.501l-105.771 105.771c-46.976-36.779-103.339-62.037-165.547-69.845v-130.944c0-23.595-19.072-42.667-42.667-42.667s-42.667 19.072-42.667 42.667v130.944c-62.208 7.808-118.571 33.067-165.547 69.845l-105.771-105.771c-8.363-8.32-19.243-12.501-30.165-12.501s-21.845 4.181-30.165 12.501c-16.683 16.683-16.683 43.691 0 60.373l105.984 105.941c-36.309 47.061-61.184 103.424-69.035 165.333h-131.968c-23.595 0-42.667 19.115-42.667 42.667 0 23.595 19.072 42.709 42.667 42.709h131.968c7.851 61.909 32.768 118.229 69.035 165.291l-105.984 105.984c-16.683 16.64-16.683 43.691 0 60.331 16.64 16.683 43.648 16.683 60.331 0l105.813-105.771c46.933 36.779 103.296 61.995 165.504 69.803v130.987c0 23.552 19.072 42.667 42.667 42.667s42.667-19.115 42.667-42.667v-130.987c62.208-7.808 118.571-33.067 165.504-69.803l105.813 105.771c16.683 16.683 43.691 16.683 60.331 0 16.683-16.64 16.683-43.691 0-60.331l-105.984-105.984c36.267-47.061 61.184-103.381 68.992-165.291h132.011c23.595 0 42.667-19.115 42.667-42.709 0-23.552-19.072-42.667-42.667-42.667zM512 704c-141.184 0-256-114.859-256-256s114.816-256 256-256c141.184 0 256 114.859 256 256s-114.816 256-256 256z" />
<glyph unicode="&#xe90b;" glyph-name="cancel-circle" d="M512-64c-282.325 0-512 229.675-512 512s229.675 512 512 512c282.325 0 512-229.675 512-512s-229.675-512-512-512zM512 874.667c-235.264 0-426.667-191.403-426.667-426.667s191.403-426.667 426.667-426.667c235.264 0 426.667 191.403 426.667 426.667s-191.403 426.667-426.667 426.667zM712.832 247.168c-8.32-8.32-19.243-12.501-30.165-12.501s-21.845 4.181-30.165 12.501l-140.501 140.501-140.501-140.501c-8.32-8.32-19.243-12.501-30.165-12.501s-21.845 4.181-30.165 12.501c-16.683 16.64-16.683 43.691 0 60.331l140.501 140.501-140.501 140.501c-16.683 16.64-16.683 43.648 0 60.331s43.648 16.683 60.331 0l140.501-140.501 140.501 140.501c16.683 16.683 43.648 16.683 60.331 0s16.683-43.691 0-60.331l-140.501-140.501 140.501-140.501c16.683-16.64 16.683-43.691 0-60.331z" />
<glyph unicode="&#xe90c;" glyph-name="cancel-square-2" d="M981.333-64h-938.667c-23.552 0-42.667 19.115-42.667 42.667v938.667c0 23.552 19.115 42.667 42.667 42.667h938.667c23.552 0 42.667-19.115 42.667-42.667v-938.667c0-23.552-19.115-42.667-42.667-42.667zM878.379 21.333l-366.379 366.336-366.336-366.336h732.715zM451.669 448l-366.336 366.379v-732.715l366.336 366.336zM145.707 874.667l366.293-366.293 366.336 366.293h-732.629zM572.331 448.043l366.336-366.336v732.629l-366.336-366.293z" />
<glyph unicode="&#xe90d;" glyph-name="cancel-square" d="M981.333-64h-938.667c-23.552 0-42.667 19.115-42.667 42.667v938.667c0 23.552 19.115 42.667 42.667 42.667h938.667c23.552 0 42.667-19.115 42.667-42.667v-938.667c0-23.552-19.115-42.667-42.667-42.667zM938.667 874.667h-853.333v-853.333h853.333v853.333zM311.168 648.832c16.683 16.683 43.648 16.683 60.331 0l140.501-140.501 140.501 140.501c16.683 16.683 43.648 16.683 60.331 0 16.683-16.64 16.683-43.691 0-60.331l-140.501-140.501 140.501-140.501c16.683-16.64 16.683-43.691 0-60.331-8.32-8.32-19.243-12.501-30.165-12.501s-21.845 4.181-30.165 12.501l-140.501 140.501-140.501-140.501c-8.32-8.32-19.243-12.501-30.165-12.501s-21.845 4.181-30.165 12.501c-16.683 16.64-16.683 43.691 0 60.331l140.501 140.501-140.501 140.501c-16.683 16.64-16.683 43.691 0 60.331z" />
<glyph unicode="&#xe90e;" glyph-name="check-all" d="M1008.913 699.085l-472.405-542.925c-6.144-7.1-14.95-11.298-24.303-11.639-0.41-0.034-0.853-0.034-1.263-0.034-8.909 0-17.51 3.55-23.859 9.83l-273.476 271.497c-13.312 13.21-13.414 34.679-0.205 47.991 13.141 13.312 34.645 13.38 47.923 0.171l247.808-245.965 448.683 515.652c12.22 14.131 33.69 15.633 47.821 3.311s15.599-33.758 3.277-47.889zM520.806 371.883c-6.69-7.714-16.111-11.639-25.6-11.639-7.885 0-15.804 2.731-22.221 8.329-14.131 12.322-15.599 33.758-3.311 47.889l284.706 327.202c12.254 14.131 33.69 15.633 47.821 3.311s15.599-33.758 3.311-47.889l-284.706-327.202zM331.605 154.556c-6.622-6.724-15.36-10.069-24.098-10.069-8.602 0-17.237 3.277-23.859 9.83l-273.476 271.497c-13.312 13.21-13.414 34.679-0.205 47.991 13.141 13.312 34.645 13.38 47.923 0.171l273.51-271.462c13.278-13.21 13.38-34.679 0.205-47.957z" />
<glyph unicode="&#xe90f;" glyph-name="check-circle-2" horiz-adv-x="1023" d="M1012.606 889.323l-511.657-596.984c-7.71-8.995-18.89-14.35-30.755-14.821-0.557-0.043-1.071-0.043-1.628-0.043-11.265 0-22.145 4.498-30.155 12.508l-213.187 213.187c-16.663 16.62-16.663 43.648 0 60.311 16.663 16.62 43.648 16.62 60.268 0l180.676-180.633 481.716 561.988c15.335 17.862 42.278 19.961 60.097 4.626 17.905-15.335 19.961-42.235 4.626-60.14zM621.699 761.377c-42.92 19.233-90.166 27.8-153.133 27.8-211.602 0-383.754-172.194-383.754-383.754 0-211.645 172.152-383.797 383.754-383.797s383.754 172.152 383.754 383.797c0 39.322-5.783 73.547-19.361 114.454-7.453 22.317 4.669 46.475 26.986 53.929 22.274 7.368 46.475-4.712 53.886-27.029 16.448-49.431 23.773-93.036 23.773-141.354 0-258.634-210.403-469.080-469.037-469.080s-469.037 210.446-469.037 469.080c0 258.634 210.403 469.037 469.037 469.037 74.532 0 134.243-11.18 187.958-35.21 21.503-9.595 31.141-34.824 21.546-56.327-9.638-21.503-34.782-31.141-56.37-21.546z" />
<glyph unicode="&#xe910;" glyph-name="check-circle" d="M512-64c-282.325 0-512 229.675-512 512s229.675 512 512 512c282.325 0 512-229.675 512-512s-229.675-512-512-512zM512 874.667c-235.264 0-426.667-191.403-426.667-426.667s191.403-426.667 426.667-426.667c235.264 0 426.667 191.403 426.667 426.667s-191.403 426.667-426.667 426.667zM501.419 249.259c-8.405-9.643-20.224-14.592-32.085-14.592-9.387 0-18.816 3.072-26.624 9.344l-213.376 170.667c-18.389 14.72-21.376 41.557-6.656 59.989 14.763 18.389 41.643 21.376 59.947 6.656l181.461-145.152 271.829 310.571c15.531 17.749 42.453 19.541 60.203 4.053 17.707-15.531 19.499-42.496 3.968-60.203l-298.667-341.333z" />
<glyph unicode="&#xe911;" glyph-name="check-square-2" horiz-adv-x="1023" d="M1012.478 889.323l-511.7-596.984c-7.71-8.995-18.847-14.35-30.712-14.821-0.557-0.043-1.114-0.043-1.671-0.043-11.265 0-22.103 4.498-30.113 12.508l-213.23 213.187c-16.663 16.62-16.663 43.648 0 60.311s43.648 16.663 60.311 0l180.633-180.633 481.716 561.988c15.335 17.862 42.278 19.961 60.14 4.626s19.918-42.235 4.626-60.14zM599.682 792.689h-514.013l-1.028-771.063 772.048 0.043v514.013c0 23.559 14.564 40.264 38.123 40.264s42.62-19.104 42.62-42.62v-554.32c0-23.559-19.061-42.663-42.62-42.663h-852.791c-23.559 0-42.663 19.104-42.663 42.663v852.791c0 23.559 19.104 42.663 42.663 42.663h554.32c23.516 0 42.62-19.104 42.62-42.663 0-23.516-15.72-39.108-39.279-39.108z" />
<glyph unicode="&#xe912;" glyph-name="check-square" d="M981.333-64h-938.667c-23.552 0-42.667 19.115-42.667 42.667v938.667c0 23.552 19.115 42.667 42.667 42.667h938.667c23.552 0 42.667-19.115 42.667-42.667v-938.667c0-23.552-19.115-42.667-42.667-42.667zM938.667 874.667h-853.333v-853.333h853.333v853.333zM282.624 481.323l181.461-145.152 271.829 310.571c15.488 17.749 42.453 19.541 60.203 4.053 17.707-15.531 19.499-42.496 3.968-60.245l-298.667-341.291c-8.405-9.643-20.224-14.592-32.085-14.592-9.387 0-18.773 3.072-26.624 9.344l-213.376 170.667c-18.389 14.72-21.376 41.6-6.656 59.989 14.677 18.389 41.6 21.376 59.947 6.656z" />
<glyph unicode="&#xe913;" glyph-name="check" d="M383.36 68.608c-11.136 0-21.845 4.437-29.781 12.288l-341.333 339.371c-16.597 16.512-16.725 43.349-0.256 59.989 16.427 16.64 43.221 16.725 59.861 0.256l309.291-307.499 559.957 644.565c15.275 17.664 42.027 19.541 59.691 4.139 17.621-15.403 19.456-42.197 4.096-59.861l-589.611-678.656c-7.68-8.875-18.645-14.123-30.336-14.549-0.512-0.043-1.024-0.043-1.579-0.043z" />
<glyph unicode="&#xe914;" glyph-name="close" horiz-adv-x="1020" d="M569.912 448.3l437.597-439.267c16.62-16.663 16.62-43.691 0-60.354-8.267-8.31-19.147-12.465-30.027-12.465s-21.76 4.155-30.070 12.465l-437.639 439.267-437.597-439.267c-8.267-8.31-19.147-12.465-30.027-12.465s-21.76 4.155-30.070 12.465c-16.62 16.663-16.62 43.691 0 60.354l437.597 439.267-437.597 439.224c-16.62 16.663-16.62 43.691 0 60.354s43.52 16.663 60.097 0l437.597-439.224 437.597 439.224c16.62 16.663 43.52 16.663 60.14 0 16.577-16.663 16.577-43.691 0-60.354l-437.597-439.224z" />
<glyph unicode="&#xe915;" glyph-name="config-1" d="M938.667 541.227v-562.56c0-23.552-19.115-42.667-42.667-42.667s-42.667 19.115-42.667 42.667v562.56c-49.579 17.664-85.333 64.555-85.333 120.107s35.755 102.443 85.333 120.149v135.851c0 23.552 19.115 42.667 42.667 42.667s42.667-19.115 42.667-42.667v-135.851c49.536-17.707 85.333-64.597 85.333-120.149s-35.797-102.443-85.333-120.107zM896 704c-23.509 0-42.667-19.115-42.667-42.667 0-23.509 19.157-42.667 42.667-42.667s42.667 19.157 42.667 42.667c0 23.552-19.157 42.667-42.667 42.667zM554.667 114.517v-135.851c0-23.552-19.115-42.667-42.667-42.667s-42.667 19.115-42.667 42.667v135.851c-49.536 17.707-85.333 64.597-85.333 120.149s35.797 102.443 85.333 120.149v562.517c0 23.552 19.115 42.667 42.667 42.667s42.667-19.115 42.667-42.667v-562.517c49.579-17.707 85.333-64.597 85.333-120.149s-35.755-102.443-85.333-120.149zM512 277.333c-23.509 0-42.667-19.115-42.667-42.667s19.157-42.667 42.667-42.667c23.509 0 42.667 19.115 42.667 42.667s-19.157 42.667-42.667 42.667zM170.667 327.851v-349.184c0-23.552-19.115-42.667-42.667-42.667s-42.667 19.115-42.667 42.667v349.184c-49.579 17.664-85.333 64.597-85.333 120.149s35.755 102.485 85.333 120.149v349.184c0 23.552 19.115 42.667 42.667 42.667s42.667-19.115 42.667-42.667v-349.184c49.536-17.664 85.333-64.597 85.333-120.149s-35.797-102.485-85.333-120.149zM128 490.667c-23.509 0-42.667-19.157-42.667-42.667s19.157-42.667 42.667-42.667c23.509 0 42.667 19.157 42.667 42.667s-19.157 42.667-42.667 42.667z" />
<glyph unicode="&#xe916;" glyph-name="config-2" d="M981.333 618.667h-42.667v-640c0-23.552-19.115-42.667-42.667-42.667s-42.667 19.115-42.667 42.667v640h-42.667c-23.552 0-42.667 19.115-42.667 42.667s19.115 42.667 42.667 42.667h42.667v213.333c0 23.552 19.115 42.667 42.667 42.667s42.667-19.115 42.667-42.667v-213.333h42.667c23.552 0 42.667-19.115 42.667-42.667s-19.115-42.667-42.667-42.667zM597.333 192h-42.667v-213.333c0-23.552-19.115-42.667-42.667-42.667s-42.667 19.115-42.667 42.667v213.333h-42.667c-23.552 0-42.667 19.115-42.667 42.667s19.115 42.667 42.667 42.667h42.667v640c0 23.552 19.115 42.667 42.667 42.667s42.667-19.115 42.667-42.667v-640h42.667c23.552 0 42.667-19.115 42.667-42.667s-19.115-42.667-42.667-42.667zM213.333 405.333h-42.667v-426.667c0-23.552-19.115-42.667-42.667-42.667s-42.667 19.115-42.667 42.667v426.667h-42.667c-23.552 0-42.667 19.115-42.667 42.667s19.115 42.667 42.667 42.667h42.667v426.667c0 23.552 19.115 42.667 42.667 42.667s42.667-19.115 42.667-42.667v-426.667h42.667c23.552 0 42.667-19.115 42.667-42.667s-19.115-42.667-42.667-42.667z" />
<glyph unicode="&#xe917;" glyph-name="contract-2" horiz-adv-x="1021" d="M741.114 618.924h152.614c23.542 0 42.581-19.125 42.581-42.71s-13.55-41.166-37.092-41.166h-252.913c-2.659-0.515-5.231-1.544-7.933-1.544-10.892 0-21.784 4.159-30.103 12.521-12.521 12.564-15.566 31.003-9.219 46.44v242.75c0 23.585 15.78 40.051 39.322 40.051 23.499 0 42.538-19.168 42.538-42.71v-153.214l267.835 268.821c16.638 16.681 43.567 16.681 60.205 0s16.638-43.739 0-60.377l-267.835-268.864zM425.552 63.571c0-23.585-19.039-42.752-42.538-42.752-23.542 0-42.581 19.168-42.581 42.752v153.171l-267.835-268.821c-8.319-8.362-19.211-12.521-30.103-12.521s-21.784 4.159-30.060 12.521c-16.638 16.681-16.638 43.739 0 60.377l267.792 268.864h-152.614c-23.499 0-42.538 19.125-42.538 42.71 0 23.627 19.039 42.752 42.538 42.752h255.4c0.257 0 0.472-0.129 0.729-0.172 5.274-0.086 10.549-1.072 15.523-3.13 10.42-4.331 18.696-12.65 23.027-23.113 2.144-5.231 3.259-10.763 3.259-16.338v-256.3zM413.073 546.026c-8.276-8.362-19.168-12.521-30.060-12.521-2.702 0-5.274 1.029-7.933 1.544h-247.724c-23.542 0-42.281 17.581-42.281 41.166s19.039 42.71 42.538 42.71h152.657l-267.835 268.864c-16.638 16.638-16.638 43.696 0 60.377 16.595 16.681 43.524 16.681 60.162 0l267.835-268.821v153.214c0 23.542 19.039 42.71 42.581 42.71 23.499 0 42.538-19.168 42.538-42.71v-256.343c0 0 0 0 0 0v0c0-12.092-4.631-22.47-12.221-29.845-0.086-0.086-0.129-0.257-0.257-0.343zM637.513 362.452c0.3 0 0.557 0.172 0.858 0.172h255.357c23.542 0 42.581-19.125 42.581-42.752 0-23.585-19.039-42.71-42.581-42.71h-152.614l267.835-268.864c16.638-16.638 16.638-43.696 0-60.377-8.319-8.362-19.211-12.521-30.103-12.521s-21.784 4.159-30.103 12.521l-267.835 268.821v-153.171c0-23.585-19.039-42.752-42.538-42.752-23.542 0-39.322 18.953-39.322 42.538v240.263c-6.346 15.48-3.302 33.919 9.219 46.483 8.105 8.105 18.653 12.135 29.245 12.35z" />
<glyph unicode="&#xe918;" glyph-name="contract-3" d="M938.667-64h-853.333c-47.061 0-85.333 38.272-85.333 85.333v853.333c0 47.061 38.272 85.333 85.333 85.333h853.333c47.061 0 85.333-38.272 85.333-85.333v-853.333c0-47.061-38.272-85.333-85.333-85.333zM85.333 81.664l238.336 238.336h-67.669c-23.552 0-42.667 19.115-42.667 42.667s19.115 42.667 42.667 42.667h170.667c23.552 0 42.667-19.115 42.667-42.667v-170.667c0-23.552-19.115-42.667-42.667-42.667s-42.667 19.115-42.667 42.667v67.669l-238.336-238.336h792.875l0.128 793.003-238.336-238.336h67.669c23.552 0 42.667-19.115 42.667-42.667s-19.115-42.667-42.667-42.667h-170.667c-23.552 0-42.667 19.115-42.667 42.667v170.667c0 23.552 19.115 42.667 42.667 42.667s42.667-19.115 42.667-42.667v-67.669l238.336 238.336h-793.003v-793.003z" />
<glyph unicode="&#xe919;" glyph-name="contract-4" d="M1010.868 886.643l-566.494-566.451h238.121c23.525 0 42.603-19.12 42.603-42.645s-19.077-42.603-42.603-42.603h-341.034c-23.525 0-40.72 19.719-40.72 43.244v342.189c0 23.525 17.195 40.678 40.72 40.678 23.568 0 42.645-19.034 42.645-42.603v-238.035l566.494 566.451c16.639 16.682 43.586 16.682 60.268 0 16.639-16.596 16.639-43.629 0-60.225zM642.93 877.019h-556.057l-1.027-855.13 856.499-0.342v556.057c0 23.525 14.842 40.849 38.368 40.849s42.645-19.077 42.645-42.603v-596.563c0-23.525-19.12-42.645-42.645-42.645h-937.469c-23.525 0-42.645 19.12-42.645 42.645v937.469c0 23.525 19.12 42.603 42.645 42.603h596.563c23.525 0 42.645-19.077 42.645-42.603s-15.997-39.737-39.523-39.737z" />
<glyph unicode="&#xe91a;" glyph-name="contract" d="M1011.968 350.647c-4.498-25.417-63.086-264.082-69.742-291.218-0.183-0.731-0.658-1.28-0.878-1.975-0.512-1.719-1.317-3.255-2.085-4.864-1.207-2.45-2.487-4.754-4.133-6.839-1.061-1.317-2.158-2.487-3.365-3.657-2.158-2.048-4.535-3.73-7.095-5.193-0.914-0.512-1.499-1.353-2.414-1.792-3.584-1.646-89.527-40.887-215.442-40.887-120.795 0-202.715 35.767-212.517 40.265-0.11 0.037-0.183 0.073-0.256 0.11-0.329 0.146-1.317 0.585-1.426 0.622-2.194 1.024-3.657 2.779-5.522 4.133-1.682 1.207-3.584 1.938-5.047 3.474-2.231 2.267-55.040 57.381-114.578 156.050-54.674 90.624-138.021 169.509-138.825 170.313-14.409 13.531-15.36 36.133-2.194 50.834 52.37 58.441 163.84 65.646 224.987 14.482l19.383-19.383v343.625c0 64.841 44.581 110.153 108.434 110.153 63.744 0 108.251-45.166 108.251-109.751v-221.769c8.667 0.914 17.847 1.134 28.087-0.549 28.526-4.791 48.53-20.078 61.769-37.157 18.542 6.656 41.033 9.655 65.207 2.706 25.088-7.168 42.057-21.431 53.029-36.571 17.701 3.474 39.68 3.877 62.135-6.071 42.13-18.578 62.903-60.379 54.235-109.093zM928.512 393.106c-14.519 6.29-33.536-3.986-33.719-4.023-10.423-6.034-23.479-6.437-34.231-1.061-10.825 5.413-18.432 15.762-19.968 27.758-0.475 2.048-3.584 12.507-17.957 16.567-18.359 5.266-34.962-9.216-35.145-9.399-9.472-9.179-23.186-12.398-35.73-8.594-12.617 3.877-22.162 14.263-24.869 27.209-0.439 1.573-5.632 20.517-23.223 23.479-15.397 2.633-24.795-6.546-25.819-7.57-0.146-0.183-0.366-0.219-0.512-0.366-6.583-6.949-15.799-11.337-26.112-11.337-18.871 0-33.865 14.629-35.584 33.134-0.073 0.658-0.366 1.243-0.402 1.902 0 0.475-0.256 0.878-0.256 1.353v276.992c0 24.503-12.032 36.937-35.73 36.937-29.659 0-35.913-20.334-35.913-37.339v-427.154c1.573-10.935-1.207-22.418-9.618-30.866-0.183-0.183-0.439-0.219-0.658-0.439-6.583-6.802-15.726-11.118-25.966-11.118-12.581 0-23.15 6.802-29.623 16.567l-74.862 75.045c-21.065 17.481-61.586 20.37-92.526 9.326 31.817-33.609 81.225-90.222 119.442-153.563 45.568-75.483 86.747-123.319 99.877-137.911 18.761-7.607 85.211-31.634 177.408-31.634 81.079 0 142.336 18.286 169.472 28.087 25.783 105.216 61.33 251.794 64.256 268.361 4.059 22.565-7.205 27.538-12.032 29.659zM340.955 759.662h9.179c20.041 0 36.242-16.274 36.242-36.389s-16.201-36.425-36.242-36.425h-96.658c-1.682 0-3.145 0.731-4.754 0.987-3.072 0.402-6.144 0.622-9.070 1.829-8.887 3.657-15.982 10.752-19.639 19.675-1.902 4.535-2.816 9.326-2.816 14.117v96.878c0 20.114 16.238 36.389 36.279 36.389s36.279-16.274 36.279-36.389v-9.143l83.090 83.419c14.19 14.226 37.12 14.226 51.31 0 14.153-14.19 14.153-37.23 0-51.456l-83.2-83.493zM180.882 517.047c-20.041 0-36.242 16.311-36.242 36.425v9.179l-83.163-83.456c-7.095-7.131-16.347-10.679-25.637-10.679s-18.578 3.547-25.637 10.679c-14.19 14.19-14.19 37.23 0 51.456l83.163 83.456h-9.179c-20.041 0-36.279 16.274-36.279 36.389s16.238 36.389 36.279 36.389h96.695c0 0 0 0 0 0 4.754 0 9.435-0.951 13.861-2.779 8.887-3.694 15.945-10.789 19.639-19.712 1.829-4.425 2.779-9.143 2.779-13.897 0 0 0 0 0 0v-97.024c0-20.114-16.201-36.425-36.279-36.425z" />
<glyph unicode="&#xe91b;" glyph-name="cursor-click" d="M1023.531 71.765c0-11.349-4.523-22.229-12.544-30.208l-93.483-93.099c-8.32-8.277-19.285-12.459-30.251-12.459-10.923 0-21.888 4.181-30.251 12.501l-219.179 218.539-94.293-91.051c-10.325-9.899-25.003-14.037-38.869-11.008-13.995 3.029-25.557 12.843-30.763 26.155l-217.856 554.667c-6.229 15.744-2.432 33.707 9.6 45.696 11.989 11.989 29.995 15.744 45.867 9.557l198.229-77.397c2.219 12.373 3.669 24.917 3.669 37.675 0 117.632-96 213.333-214.016 213.333-117.973 0-213.973-95.701-213.973-213.333 0-96.896 65.493-181.717 159.317-206.293 22.869-5.973 36.523-29.355 30.549-52.096-5.077-19.157-22.443-31.829-41.387-31.829-3.584 0-7.253 0.427-10.923 1.408-131.413 34.432-223.189 153.216-223.189 288.811 0 164.693 134.4 298.667 299.605 298.667s299.605-133.973 299.605-298.667c0-23.467-3.541-46.507-8.875-69.035l277.803-108.459c13.355-5.205 23.168-16.725 26.197-30.677 3.072-13.952-1.109-28.501-11.051-38.741l-91.307-93.952 219.221-218.539c8.021-8.021 12.544-18.859 12.544-30.165zM701.44 289.835c-16.555 16.469-16.768 43.136-0.512 59.861l75.904 78.080-405.376 158.251 158.72-404.096 78.336 75.648c8.32 7.979 19.072 11.989 29.781 11.989 10.965 0 21.931-4.181 30.293-12.459l218.709-218.112 32.896 32.768-218.752 218.069z" />
<glyph unicode="&#xe91c;" glyph-name="cursor-double-click" d="M1023.915 72.149c0.085-11.477-4.395-22.485-12.501-30.592l-93.141-93.099c-7.979-7.979-18.859-12.459-30.165-12.459-0.085 0-0.256 0-0.384 0-11.435 0.128-22.357 4.821-30.336 13.056l-175.36 182.059-97.237-97.28c-10.453-10.453-25.557-14.763-39.979-11.349-14.379 3.371-25.984 13.995-30.677 28.032l-170.624 512c-5.12 15.317-1.152 32.213 10.283 43.648s28.331 15.403 43.648 10.283l71.424-23.765c0.085 1.536 0.427 3.072 0.427 4.651 0 58.795-47.872 106.667-106.667 106.667s-106.667-47.872-106.667-106.667c0-36.437 18.304-70.016 48.981-89.771 19.797-12.757 25.515-39.168 12.757-58.965-8.149-12.672-21.888-19.541-35.883-19.541-7.936 0-15.915 2.176-23.083 6.784-55.125 35.541-88.064 95.915-88.064 161.493 0 105.856 86.101 192 191.957 192s192-86.144 192-192c0-10.923-1.109-21.675-2.901-32.299l81.109-27.051c4.267 19.456 7.125 39.168 7.125 59.349 0 152.917-124.416 277.333-277.333 277.333s-277.291-124.416-277.291-277.333c0-143.232 111.616-264.661 254.123-276.395 23.509-1.92 40.96-22.528 39.040-46.037-1.835-22.272-20.523-39.168-42.496-39.168-1.152 0-2.347 0.085-3.541 0.171-186.411 15.36-332.459 174.123-332.459 361.429 0 199.979 162.645 362.667 362.624 362.667s362.624-162.688 362.624-362.667c0-29.397-4.736-58.069-11.648-86.272l195.797-65.237c14.037-4.693 24.619-16.299 28.032-30.677 3.413-14.421-0.896-29.525-11.349-39.979l-97.28-97.28 182.016-175.403c8.277-7.936 12.971-18.901 13.099-30.336zM738.347 246.613c-8.277 7.936-12.971 18.859-13.099 30.336-0.085 11.477 4.395 22.443 12.501 30.549l79.189 79.189-365.525 121.856 121.856-365.568 79.147 79.189c8.021 8.021 18.859 12.501 30.165 12.501 0.128 0 0.299 0 0.427 0 11.435-0.085 22.357-4.821 30.336-13.056l175.36-182.059 31.616 31.659-181.973 175.403z" />
<glyph unicode="&#xe91d;" glyph-name="cursor-select" d="M1024 71.765c0-11.349-4.48-22.187-12.501-30.208l-93.141-93.099c-8.32-8.277-19.243-12.459-30.165-12.459-10.88 0-21.803 4.181-30.165 12.501l-218.496 218.539-93.952-91.051c-10.283-9.899-24.832-13.995-38.784-11.008-13.952 3.029-25.429 12.843-30.635 26.112l-217.216 554.667c-6.187 15.787-2.432 33.749 9.557 45.739s29.909 15.744 45.739 9.557l554.667-217.216c13.269-5.248 23.083-16.725 26.112-30.677s-1.109-28.501-11.051-38.784l-91.008-93.909 218.539-218.539c8.021-8.021 12.501-18.859 12.501-30.165zM702.933 289.835c-16.512 16.469-16.725 43.136-0.512 59.861l75.648 78.037-404.096 158.293 158.251-404.096 78.080 75.648c8.277 7.979 18.987 11.989 29.696 11.989 10.923 0 21.845-4.181 30.165-12.459l218.027-218.112 32.768 32.768-218.027 218.069zM810.667 576c-23.552 0-42.667 19.115-42.667 42.667v256h-682.667v-682.667h256c23.552 0 42.667-19.115 42.667-42.667s-19.115-42.667-42.667-42.667h-298.667c-23.552 0-42.667 19.115-42.667 42.667v768c0 23.552 19.115 42.667 42.667 42.667h768c23.552 0 42.667-19.115 42.667-42.667v-298.667c0-23.552-19.115-42.667-42.667-42.667z" />
<glyph unicode="&#xe91e;" glyph-name="cursor" horiz-adv-x="1020" d="M1007.66 76.768l-127.465-127.979c-8.341-8.341-19.205-12.49-30.070-12.49s-21.772 4.149-30.027 12.49l-331.239 332.479-161.214-161.855c-8.041-8.084-18.906-12.49-30.027-12.49-3.294 0-6.544 0.385-9.795 1.155-14.329 3.422-25.878 13.987-30.54 28.017l-255.016 767.914c-5.090 15.356-1.112 32.251 10.266 43.672s28.188 15.398 43.501 10.308l765.049-255.957c13.944-4.705 24.509-16.297 27.888-30.711 3.379-14.372-0.898-29.514-11.292-39.951l-161.171-161.813 331.153-332.436c16.639-16.682 16.639-43.672 0-60.354zM586.341 439.403c-8.298 8.341-12.447 19.248-12.447 30.155s4.149 21.857 12.447 30.155l142.607 143.163-619.148 207.195 206.383-621.5 142.607 143.163c16.639 16.682 43.501 16.682 60.097 0l331.239-332.436 67.411 67.625-331.196 332.479z" />
<glyph unicode="&#xe91f;" glyph-name="door-lock" d="M512-64c-282.325 0-512 229.675-512 512s229.675 512 512 512c282.325 0 512-229.675 512-512s-229.675-512-512-512zM512 874.667c-235.264 0-426.667-191.403-426.667-426.667s191.403-426.667 426.667-426.667c235.264 0 426.667 191.403 426.667 426.667s-191.403 426.667-426.667 426.667zM625.877 409.685l54.528-161.365c4.395-13.013 2.261-27.349-5.76-38.528-7.979-11.179-20.907-17.792-34.645-17.792h-256c-13.739 0-26.624 6.613-34.645 17.792-8.064 11.179-10.155 25.515-5.76 38.528l54.485 161.152c-35.2 32.384-56.747 77.013-56.747 123.861 0 94.123 76.544 170.667 170.667 170.667s170.667-76.544 170.667-170.667c0-46.677-21.547-91.221-56.789-123.648zM512 618.667c-47.061 0-85.333-38.272-85.333-85.333 0-28.757 16.64-56.661 43.435-72.917 1.152-0.725 1.792-1.835 2.816-2.603 2.389-1.749 4.395-3.669 6.357-5.845 1.835-2.005 3.456-4.011 4.821-6.357 1.408-2.304 2.432-4.693 3.371-7.253 0.939-2.603 1.707-5.12 2.133-7.851 0.427-2.603 0.469-5.163 0.384-7.851-0.085-2.944-0.384-5.717-1.067-8.619-0.341-1.237-0.085-2.517-0.512-3.797l-44.928-132.907h137.045l-44.928 133.077c-0.427 1.237-0.171 2.517-0.469 3.755-0.725 2.859-1.024 5.675-1.109 8.576-0.085 2.731-0.043 5.291 0.341 7.893 0.469 2.731 1.237 5.205 2.176 7.808s1.92 4.992 3.328 7.339c1.408 2.304 3.029 4.309 4.821 6.315 1.92 2.176 3.925 4.096 6.315 5.845 1.024 0.768 1.664 1.877 2.773 2.56 26.88 16.384 43.563 44.288 43.563 72.832 0 47.061-38.272 85.333-85.333 85.333z" />
<glyph unicode="&#xe920;" glyph-name="double-tap" d="M876.954 270.336c-4.164-23.893-58.709-247.74-64.922-273.169-0.171-0.683-0.58-1.195-0.785-1.877-0.512-1.604-1.263-3.004-1.98-4.54-1.092-2.321-2.287-4.471-3.823-6.417-0.99-1.229-2.014-2.321-3.14-3.413-2.014-1.946-4.198-3.516-6.622-4.915-0.819-0.444-1.365-1.229-2.253-1.638-3.311-1.57-83.319-38.366-200.567-38.366-112.401 0-188.655 33.519-197.837 37.751-0.102 0.034-0.205 0.102-0.307 0.137-0.273 0.137-1.195 0.546-1.297 0.58-1.946 0.922-3.277 2.526-4.983 3.755-1.57 1.161-3.413 1.843-4.847 3.345-2.082 2.185-51.234 53.828-106.667 146.364-50.927 84.958-128.512 158.959-129.263 159.71-13.414 12.698-14.302 33.894-2.048 47.684 48.777 54.784 152.508 61.542 209.476 13.551l18.057-18.159v322.253c0 60.826 41.506 103.287 100.966 103.287 59.324 0 100.762-42.325 100.762-102.912v-207.974c8.055 0.887 16.623 1.092 26.112-0.512 26.59-4.506 45.193-18.807 57.515-34.85 17.306 6.281 38.366 9.011 60.757 2.56 23.347-6.724 39.117-20.105 49.357-34.304 16.418 3.243 36.932 3.584 57.856-5.7 39.151-17.408 58.539-56.593 50.483-102.229zM799.232 310.101c-13.517 5.939-31.164-3.721-31.334-3.823-9.728-5.598-21.879-6.007-31.881-0.956-10.069 5.086-17.169 14.78-18.603 26.010-0.444 1.911-3.379 11.708-16.691 15.565-17.169 5.052-32.631-8.67-32.768-8.841-8.841-8.533-21.504-11.605-33.314-8.021-11.708 3.618-20.582 13.346-23.108 25.498-0.41 1.468-5.257 19.217-21.641 21.982-14.302 2.355-23.313-6.349-23.381-6.417-0.239-0.273-0.614-0.375-0.853-0.649-1.741-1.877-3.891-3.209-6.042-4.642-1.536-1.058-2.935-2.389-4.608-3.14-1.809-0.853-3.823-1.058-5.803-1.536-2.321-0.614-4.574-1.365-6.997-1.434-0.375-0.034-0.683-0.239-1.092-0.239-1.741 0-3.243 0.751-4.915 1.024-2.355 0.341-4.642 0.546-6.861 1.399-2.355 0.887-4.335 2.321-6.383 3.686-1.331 0.887-2.867 1.263-4.096 2.355-0.273 0.273-0.375 0.614-0.649 0.887-1.877 1.741-3.14 3.925-4.574 6.042-1.058 1.604-2.355 3.004-3.14 4.676-0.819 1.843-1.024 3.857-1.502 5.837-0.614 2.389-1.365 4.676-1.434 7.134 0 0.375-0.205 0.717-0.205 1.092v259.755c0 23.006-11.196 34.645-33.246 34.645-27.648 0-33.451-19.046-33.451-35.021v-400.521c1.502-10.274-1.092-21.060-8.909-28.979-0.205-0.205-0.478-0.273-0.683-0.444-6.11-6.417-14.643-10.445-24.166-10.445-11.674 0-21.436 6.349-27.511 15.462l-69.803 70.451c-19.558 16.452-57.276 19.217-86.084 8.772 29.628-31.539 75.605-84.582 111.172-144.009 42.462-70.827 80.828-115.712 93.047-129.365 17.476-7.134 79.326-29.628 165.137-29.628 75.503 0 132.54 17.135 157.798 26.351 23.996 98.645 57.105 236.134 59.836 251.665 3.721 21.163-6.758 25.805-11.264 27.819zM341.197 542.14c-5.12-2.833-10.65-4.164-16.111-4.164-11.947 0-23.552 6.417-29.662 17.818-16.043 29.696-24.474 63.386-24.474 97.348 0 112.742 90.931 204.459 202.65 204.459 111.684 0 202.547-91.716 202.547-204.459 0-29.286-6.007-57.549-17.852-83.968-7.68-17.169-27.648-24.815-44.646-17.033-16.998 7.748-24.542 27.989-16.862 45.158 7.851 17.579 11.844 36.318 11.844 55.842 0 75.093-60.587 136.192-135.031 136.192-74.513 0-135.1-61.099-135.1-136.192 0-22.596 5.598-44.988 16.213-64.751 8.943-16.521 2.867-37.274-13.517-46.251zM688.538 486.741c-16.111 9.421-21.641 30.276-12.288 46.626 20.685 36.147 31.573 77.414 31.573 119.433 0 131.755-106.018 238.933-236.339 238.933s-236.373-107.179-236.373-238.933c0-57.378 20.446-112.879 57.515-156.228 12.186-14.268 10.684-35.84-3.447-48.162-6.383-5.598-14.234-8.329-22.084-8.329-9.455 0-18.876 4.028-25.532 11.81-47.718 55.774-73.967 127.113-73.967 200.909 0 169.404 136.294 307.2 303.889 307.2 167.561 0 303.889-137.796 303.889-307.2 0-53.999-14.097-107.11-40.687-153.634-9.318-16.316-29.901-21.914-46.148-12.425z" />
<glyph unicode="&#xe921;" glyph-name="download-1" horiz-adv-x="853" d="M768-64h-682.667c-47.061 0-85.333 38.315-85.333 85.333v554.667c0 47.019 38.272 85.333 85.333 85.333h170.667c23.595 0 42.667-19.072 42.667-42.667s-19.072-42.667-42.667-42.667h-170.667v-554.667h682.667v554.667h-170.667c-23.595 0-42.667 19.072-42.667 42.667s19.072 42.667 42.667 42.667h170.667c47.019 0 85.333-38.315 85.333-85.333v-554.667c0-47.019-38.315-85.333-85.333-85.333zM584.832 478.165c16.683-16.683 16.683-43.691 0-60.331l-127.957-127.957c-3.925-3.968-8.661-7.083-13.909-9.259-5.205-2.176-10.752-3.285-16.299-3.285s-11.093 1.109-16.299 3.285c-5.248 2.176-9.984 5.333-13.909 9.259l-127.957 127.957c-16.683 16.64-16.683 43.648 0 60.331s43.648 16.683 60.331 0l55.168-55.168v494.336c0 23.595 19.072 42.667 42.667 42.667s42.667-19.072 42.667-42.667v-494.336l55.168 55.168c16.683 16.683 43.648 16.683 60.331 0z" />
<glyph unicode="&#xe922;" glyph-name="download-2" d="M938.667-64h-853.333c-47.061 0-85.333 38.272-85.333 85.291v255.915c0 23.552 19.072 42.624 42.667 42.624s42.667-19.072 42.667-42.624v-255.915h853.333v255.915c0 23.552 19.072 42.624 42.667 42.624s42.667-19.072 42.667-42.624v-255.915c0-47.019-38.315-85.291-85.333-85.291zM542.208 204.843c-3.925-3.968-8.661-7.083-13.909-9.259-5.205-2.176-10.752-3.285-16.299-3.285s-11.093 1.109-16.299 3.285c-5.163 2.133-9.813 5.205-13.739 9.088 0 0.043-0.043 0.043-0.085 0.085v0c-0.043 0.043-0.043 0.043-0.085 0.085l-213.248 212.779c-16.725 16.64-16.725 43.605-0.085 60.288 16.683 16.725 43.648 16.64 60.331 0.085l140.544-140.203v579.584c0 23.552 19.072 42.624 42.667 42.624s42.667-19.072 42.667-42.624v-579.584l140.544 140.203c16.683 16.555 43.648 16.64 60.331-0.085 16.64-16.683 16.64-43.648-0.085-60.288l-213.248-212.779z" />
<glyph unicode="&#xe923;" glyph-name="drag-1" d="M963.698 732.444h-75.624c-20.935 0-37.85 16.991-37.85 37.926 0 20.973 16.915 37.926 37.85 37.926h75.624c20.897 0 37.812-16.953 37.812-37.926 0-20.935-16.915-37.926-37.812-37.926zM775.471 3.963c-0.19-0.759-0.683-1.327-0.91-2.086-0.531-1.783-1.365-3.337-2.2-5.044-1.214-2.579-2.579-4.968-4.286-7.13-1.1-1.365-2.238-2.579-3.527-3.793-2.238-2.162-4.703-3.906-7.396-5.461-0.91-0.493-1.517-1.365-2.503-1.82-3.755-1.745-93.336-42.629-224.673-42.629-125.914 0-211.323 37.243-221.639 41.946-0.114 0.038-0.19 0.114-0.303 0.152-0.341 0.152-1.327 0.607-1.479 0.645-2.162 1.024-3.679 2.807-5.575 4.172-1.783 1.289-3.831 2.048-5.423 3.717-2.313 2.427-57.382 59.809-119.505 162.626-57.003 94.398-143.929 176.659-144.763 177.455-15.057 14.108-16.043 37.66-2.313 52.983 54.651 60.871 170.894 68.38 234.686 15.057l20.177-20.177v358.059c0 67.584 46.535 114.764 113.133 114.764 66.446 0 112.868-47.028 112.868-114.347v-231.007c9.026 0.948 18.622 1.138 29.279-0.645 29.772-5.006 50.593-20.897 64.436-38.722 19.342 6.94 42.78 10.088 68.001 2.844 26.169-7.471 43.88-22.338 55.258-38.116 18.47 3.603 41.415 4.058 64.853-6.334 43.918-19.38 65.574-62.919 56.548-113.664-4.703-26.472-65.801-275.191-72.742-303.445zM761.173 351.668c-15.17 6.599-34.93-4.134-35.157-4.248-10.847-6.182-24.5-6.675-35.726-1.062-11.264 5.651-19.191 16.422-20.821 28.9-0.493 2.124-3.717 13.047-18.697 17.294-19.153 5.537-36.485-9.671-36.674-9.823-9.861-9.481-24.197-12.857-37.243-8.913-13.16 4.020-23.097 14.829-25.941 28.331-0.455 1.631-5.879 21.352-24.235 24.424-16.043 2.807-25.865-6.751-26.889-7.851-0.152-0.19-0.379-0.228-0.569-0.379-6.865-7.244-16.46-11.833-27.193-11.833-19.797 0-35.499 15.36-37.205 34.702-0.038 0.607-0.303 1.176-0.341 1.783-0.038 0.493-0.303 0.948-0.303 1.441v288.616c0 25.562-12.516 38.495-37.205 38.495-30.985 0-37.471-21.163-37.471-38.912v-445.061c1.631-11.416-1.289-23.362-10.050-32.161-0.19-0.19-0.455-0.265-0.683-0.455-6.865-7.13-16.422-11.643-27.079-11.643-13.16 0-24.121 7.13-30.91 17.294l-78.052 78.203c-21.997 18.204-64.284 21.201-96.484 9.709 33.147-35.044 84.689-93.98 124.549-160.009 47.521-78.696 90.491-128.569 104.183-143.739 19.608-7.889 88.898-32.92 185.003-32.92 84.537 0 148.442 19.039 176.735 29.279 26.889 109.606 63.981 262.372 67.015 279.628 4.21 23.514-7.509 28.672-12.553 30.91zM774.599 732.444h-75.662c-20.897 0-37.812 16.991-37.812 37.926 0 20.973 16.915 37.926 37.812 37.926h75.662c20.897 0 37.812-16.953 37.812-37.926 0-20.935-16.915-37.926-37.812-37.926zM553.263 620.601c-19.001 8.609-27.458 31.099-18.887 50.176 8.799 19.532 13.274 40.353 13.274 62.047 0 83.437-67.849 151.324-151.249 151.324-83.437 0-151.324-67.887-151.324-151.324 0-25.107 6.258-49.986 18.167-71.945 10.012-18.356 3.224-41.377-15.132-51.39-5.727-3.148-11.947-4.627-18.053-4.627-13.388 0-26.396 7.13-33.223 19.797-17.939 32.996-27.42 70.428-27.42 108.165 0 125.269 101.831 227.176 226.987 227.176 125.118 0 226.911-101.907 226.911-227.176 0-32.54-6.751-63.943-19.987-93.298-8.609-19.077-31.023-27.61-50.062-18.925z" />
<glyph unicode="&#xe924;" glyph-name="drag" horiz-adv-x="1020" d="M1007.255 417.85l-127.368-127.882c-8.308-8.308-19.144-12.506-30.022-12.506s-21.713 4.197-30.022 12.506c-16.574 16.66-16.574 43.641 0 60.258l54.905 55.162h-323.474v-324.93l55.633 55.89c16.574 16.617 43.47 16.617 60.044 0 16.574-16.66 16.574-43.684 0-60.301l-127.368-127.882c-8.308-8.351-19.144-12.506-30.022-12.506-10.835 0-21.713 4.154-30.022 12.506l-127.368 127.882c-16.574 16.617-16.574 43.641 0 60.301 16.617 16.617 43.47 16.617 60.044 0l57.56-57.817v326.858h-325.487l54.905-55.162c16.617-16.617 16.617-43.598 0-60.258-8.266-8.308-19.144-12.506-30.022-12.506-10.835 0-21.713 4.197-29.979 12.506l-127.368 127.882c-0.128 0.128-0.128 0.257-0.214 0.343-3.812 3.854-6.852 8.437-8.951 13.533-4.326 10.407-4.326 22.142 0 32.592 2.099 5.096 5.139 9.636 8.951 13.533 0.086 0.086 0.086 0.214 0.214 0.3l127.368 127.882c16.574 16.703 43.427 16.703 60.001 0 16.617-16.617 16.617-43.598 0-60.258l-54.905-55.119h325.487v326.772l-57.517-57.817c-16.617-16.66-43.47-16.617-60.087 0-16.574 16.617-16.574 43.641 0 60.258l127.368 128.011c0.257 0.257 0.685 0.343 0.985 0.642 3.469 3.597 7.795 6.338 12.72 8.266 15.418 6.081 34.39 3.126 46.382-8.908l127.325-128.011c16.574-16.617 16.574-43.641 0-60.258-8.308-8.308-19.144-12.506-30.022-12.506s-21.756 4.197-30.022 12.506l-55.633 55.89v-324.845h323.474l-54.905 55.119c-16.574 16.66-16.574 43.641 0 60.258 16.574 16.703 43.427 16.703 60.044 0l127.368-127.882c16.574-16.617 16.574-43.641 0-60.301z" />
<glyph unicode="&#xe925;" glyph-name="edit-1" horiz-adv-x="1022" d="M1020.513 782.705c-0.258-1.894-1.248-3.443-1.765-5.208-0.646-2.367-1.248-4.606-2.281-6.844-1.507-3.099-3.443-5.725-5.553-8.307-0.947-1.205-1.377-2.626-2.453-3.702l-426.602-426.344c-0.732-0.689-1.679-0.947-2.453-1.593-2.109-1.894-4.52-3.271-7.016-4.692-2.54-1.42-5.036-2.798-7.791-3.702-0.904-0.301-1.593-0.99-2.54-1.205l-170.667-42.699c-3.4-0.861-6.887-1.291-10.33-1.291-11.191 0-22.081 4.433-30.173 12.483-10.589 10.632-14.85 25.998-11.234 40.504l42.656 170.581c0.258 0.99 0.947 1.679 1.291 2.626 0.861 2.755 2.238 5.165 3.659 7.705 1.42 2.497 2.798 4.864 4.649 6.973 0.646 0.775 0.904 1.765 1.636 2.497l426.602 426.344c1.248 1.248 2.884 1.765 4.261 2.798 2.238 1.765 4.433 3.4 7.016 4.692 2.712 1.334 5.423 2.195 8.264 2.927 1.593 0.43 2.927 1.377 4.563 1.593 9.039 1.291 89.53 11.105 138.642-41.537 48.036-51.178 38.825-126.203 37.62-134.596zM920.567 859.063c-12.052 12.956-35.554 15.969-51.523 16.012l-406.802-406.501-22.555-90.176 90.176 22.555 406.802 406.501c-0.172 15.366-3.271 37.964-16.098 51.609zM516.52 792.992h-430.433v-774.779h774.779v430.433c0 23.545 8.523 41.666 32.11 41.666 23.545 0 42.656-19.068 42.656-42.613v-468.957c0-23.588-19.111-42.656-42.656-42.656h-853.204c-23.545 0-39.772 15.539-39.772 39.083v860.866c0 23.545 16.227 37.964 39.772 37.964h469.258c23.545 0 42.656-19.068 42.656-42.656 0-23.545-11.622-38.352-35.166-38.352z" />
<glyph unicode="&#xe926;" glyph-name="edit-2" d="M512-64c-127.616 0-249.813 47.189-344.192 132.907-17.451 15.829-18.731 42.837-2.901 60.288 3.328 3.669 7.339 6.187 11.435 8.405l37.248 149.035c0.256 0.981 0.939 1.707 1.28 2.645 0.853 2.731 2.219 5.163 3.627 7.68 1.451 2.517 2.859 4.907 4.736 7.083 0.64 0.725 0.896 1.707 1.579 2.432l385.067 384.981c1.195 1.237 2.816 1.707 4.139 2.731 2.261 1.835 4.523 3.456 7.168 4.779s5.333 2.176 8.149 2.901c1.621 0.427 2.944 1.408 4.608 1.664 9.045 1.28 89.557 11.136 138.667-41.6 48.085-51.157 38.869-126.293 37.675-134.699-0.299-1.92-1.28-3.456-1.792-5.248-0.64-2.347-1.237-4.565-2.261-6.827-1.493-3.072-3.456-5.717-5.589-8.363-0.939-1.152-1.365-2.56-2.432-3.669l-385.024-384.981c-0.725-0.725-1.707-0.981-2.432-1.621-2.176-1.877-4.565-3.285-7.083-4.693-2.517-1.451-4.992-2.816-7.68-3.669-0.981-0.341-1.664-1.024-2.645-1.28l-100.096-25.045c65.664-39.253 140.971-60.501 218.752-60.501 235.264 0 426.667 191.403 426.667 426.667s-191.403 426.667-426.667 426.667c-235.264 0-426.667-191.403-426.667-426.667 0-39.765 5.461-79.189 16.256-117.163 6.443-22.656-6.699-46.251-29.397-52.693-22.741-6.357-46.251 6.741-52.693 29.397-12.928 45.525-19.499 92.8-19.499 140.459 0 282.325 229.675 512 512 512s512-229.675 512-512c0-282.325-229.675-512-512-512zM710.315 603.691c-12.203 13.056-36.181 15.829-51.627 15.915l-42.24-42.24 67.669-67.669 42.283 42.283c-0.171 15.403-3.285 38.016-16.085 51.712zM361.216 186.837l262.571 262.571-67.669 67.627-262.571-262.528-22.571-90.24 90.24 22.571z" />
<glyph unicode="&#xe927;" glyph-name="edit-3" horiz-adv-x="1021" d="M1007.104 886.4c-121.728-115.968-207.744-268.8-239.104-329.131-2.304-4.395-3.797-6.869-4.139-7.424-7.851-12.075-21.248-19.371-35.627-19.371h-31.061l5.845-14.891c5.973-15.232 2.731-32.555-8.32-44.544-122.709-133.547-275.157-153.515-355.115-153.515-5.504 0-10.24 0.171-14.933 0.341-53.675-102.357-70.528-175.829-70.869-177.365-4.267-20.053-21.931-33.835-41.557-33.835-2.944 0-5.888 0.341-8.875 0.981-22.955 4.864-37.632 27.435-32.811 50.432 1.493 7.125 20.395 91.221 81.024 205.611-25.173 70.144-73.728 232.021 23.296 372.096 103.040 148.779 339.499 224.213 702.933 224.213 17.408 0 33.067-10.624 39.509-26.837s2.389-34.731-10.197-46.763zM344.747 687.147c-50.688-73.216-47.189-158.763-33.365-223.872 71.339 106.368 176.341 225.067 330.709 329.856 19.456 13.227 45.909 8.107 59.051-11.392 13.184-19.541 8.107-46.037-11.392-59.264-148.267-100.651-247.637-216.192-313.941-317.824 64.213 5.717 157.483 28.715 237.909 105.429l-18.603 47.445c-5.163 13.141-3.499 27.947 4.395 39.637 7.936 11.691 21.077 18.645 35.2 18.645h68.096c31.232 57.984 91.605 160.299 174.165 256.683-273.195-12.203-456.277-75.648-532.224-185.344zM169.643 789.333h-85.077v-768h768.768v469.333c0 23.595 15.915 42.667 39.381 42.667 23.509 0 42.539-19.115 42.539-42.667v-512c0-23.552-19.029-42.667-42.539-42.667h-850.688c-23.467 0-42.539 19.115-42.539 42.667v853.333c0 23.552 19.072 42.667 42.539 42.667h127.616c23.467 0 42.539-19.115 42.539-42.667s-19.072-42.667-42.539-42.667z" />
<glyph unicode="&#xe928;" glyph-name="expand-2" horiz-adv-x="1018" d="M1019.038-20.799c-0.043-5.561-1.155-11.078-3.294-16.254-2.139-5.133-5.176-9.752-9.025-13.645-0.043-0.086-0.086-0.171-0.128-0.214-0.171-0.171-0.428-0.214-0.599-0.385-3.807-3.721-8.213-6.758-13.174-8.811-5.218-2.139-10.736-3.294-16.254-3.294h-212.285c-23.44 0-42.431 19.077-42.431 42.603s18.991 42.645 42.431 42.645h109.8l-267.164 268.148c-16.596 16.639-16.596 43.629 0 60.268s43.458 16.639 60.054 0l267.164-268.19v110.228c0 23.525 18.991 42.603 42.431 42.603s42.474-19.077 42.474-42.603v-213.055c0 0 0-0.043 0-0.043v0c0 0 0 0 0 0zM976.564 661.055c-23.44 0-42.431 19.077-42.431 42.603v110.185l-267.164-268.148c-8.298-8.341-19.163-12.49-30.027-12.49s-21.729 4.149-30.027 12.49c-16.596 16.639-16.596 43.586 0 60.268l267.164 268.148h-109.8c-23.44 0-42.431 19.077-42.431 42.603s18.991 42.603 42.431 42.603h212.285c0.342 0 0.599-0.171 0.898-0.171 5.218-0.086 10.437-1.069 15.313-3.080 10.394-4.32 18.649-12.618 22.969-23.055 2.139-5.218 3.294-10.736 3.294-16.297 0 0 0 0 0 0v-213.055c0-23.525-19.034-42.603-42.474-42.603zM145.088 21.847h109.757c23.44 0 42.474-19.12 42.474-42.645s-19.034-42.603-42.474-42.603h-212.285c-5.518 0-11.036 1.155-16.211 3.294-4.962 2.053-9.367 5.090-13.131 8.769-0.214 0.171-0.471 0.214-0.684 0.428-0.043 0.086-0.086 0.171-0.171 0.257-3.807 3.892-6.844 8.469-8.982 13.602-2.139 5.176-3.251 10.693-3.251 16.254 0 0 0 0 0 0v0c0 0 0 0.043 0 0.043v213.055c0 23.525 18.991 42.603 42.431 42.603s42.474-19.077 42.474-42.603v-110.228l267.164 268.19c16.553 16.639 43.458 16.639 60.011 0 16.596-16.639 16.596-43.629 0-60.268l-267.121-268.148zM382.225 533.205c-10.864 0-21.729 4.149-30.027 12.49l-267.164 268.148v-110.185c0-23.525-19.034-42.603-42.474-42.603s-42.431 19.077-42.431 42.603v213.055c0 0 0 0 0 0 0 5.561 1.112 11.078 3.251 16.297 4.32 10.437 12.575 18.735 22.969 23.055 4.962 2.053 10.223 3.037 15.484 3.122 0.257 0 0.471 0.128 0.727 0.128h212.285c23.44 0 42.474-19.077 42.474-42.603s-19.034-42.603-42.474-42.603h-109.8l267.164-268.148c16.596-16.682 16.596-43.629 0-60.268-8.298-8.341-19.12-12.49-29.984-12.49z" />
<glyph unicode="&#xe929;" glyph-name="expand-3" horiz-adv-x="1020" d="M977.275 703.465c-23.469 0-42.485 19.101-42.485 42.656v67.667l-88.181-88.524c1.842-7.024 3.169-14.219 3.169-21.799v-512c0-47.067-38.159-85.355-85.055-85.355h-510.073c-7.538 0-14.733 1.328-21.713 3.212l-88.224-88.567h67.41c23.512 0 42.527-19.058 42.527-42.656 0-23.555-19.015-42.656-42.527-42.656h-170.024c-5.525 0-11.049 1.114-16.232 3.298-5.182 2.141-9.893 5.268-13.833 9.208 0 0 0 0 0 0s0 0 0 0.043c-3.897 3.897-6.981 8.608-9.165 13.79-2.141 5.225-3.255 10.792-3.255 16.36v170.581c0 23.555 19.015 42.699 42.485 42.699s42.527-19.144 42.527-42.699v-67.624l88.181 88.524c-1.884 7.024-3.169 14.261-3.169 21.842v512c0 47.024 38.116 85.312 85.012 85.312h510.073c7.58 0 14.775-1.328 21.756-3.169l88.181 88.524h-67.41c-23.469 0-42.527 19.101-42.527 42.656s19.058 42.656 42.527 42.656h170.024c0.3 0 0.557-0.128 0.814-0.128 5.268-0.128 10.493-1.114 15.418-3.126 10.407-4.326 18.673-12.677 22.998-23.084 2.141-5.225 3.298-10.75 3.298-16.317v-170.667c0-23.555-19.058-42.656-42.527-42.656zM768.236 646.59l-100.987-101.329c-8.266-8.351-19.144-12.506-30.022-12.506s-21.756 4.154-30.065 12.506c-16.617 16.66-16.617 43.641 0 60.344l99.659 100.002h-452.513l0.3-453.883 97.518 97.903c16.574 16.66 43.513 16.66 60.087 0 16.617-16.66 16.617-43.684 0-60.344l-97.432-97.817 453.455 0.214v454.911z" />
<glyph unicode="&#xe92a;" glyph-name="expand-4" horiz-adv-x="1020" d="M977.28-64h-595.115c-23.467 0-42.496 19.115-42.496 42.667s19.029 42.667 42.496 42.667h552.619v853.333h-853.461v-554.667c0-23.552-15.701-42.667-39.211-42.667-23.467 0-42.496 19.115-42.496 42.667v597.333c0 23.552 19.029 42.667 42.496 42.667h935.168c23.467 0 42.496-19.115 42.496-42.667v-938.667c0-23.552-19.029-42.667-42.496-42.667zM577.152 576h-237.525c-23.467 0-42.496 19.115-42.496 42.667s19.029 42.667 42.496 42.667h340.139c23.467 0 42.496-19.115 42.496-42.667v-341.333c0-23.552-19.029-42.667-42.496-42.667s-42.496 19.115-42.496 42.667v238.336l-565.077-567.168c-8.32-8.32-19.2-12.501-30.080-12.501s-21.717 4.181-30.037 12.501c-16.597 16.64-16.597 43.648 0 60.331l565.077 567.168z" />
<glyph unicode="&#xe92b;" glyph-name="expand-horizontal" d="M1006.123 413.269l-298.667-213.291c-7.381-5.291-16.043-7.979-24.789-7.979-6.656 0-13.397 1.579-19.499 4.736-14.208 7.296-23.168 21.973-23.168 37.931v426.667c0 16 8.96 30.635 23.168 37.931 14.165 7.296 31.275 6.059 44.288-3.2l298.667-213.376c11.221-7.979 17.877-20.907 17.877-34.688s-6.656-26.709-17.877-34.731zM725.333 578.432v-260.864l182.571 130.432-182.571 130.432zM512 21.333c-23.552 0-42.667 19.115-42.667 42.667v768c0 23.552 19.115 42.667 42.667 42.667s42.667-19.115 42.667-42.667v-768c0-23.552-19.115-42.667-42.667-42.667zM341.333 192.043c-8.747 0-17.408 2.688-24.789 7.936l-298.667 213.333c-11.221 8.021-17.877 20.949-17.877 34.731s6.656 26.709 17.877 34.731l298.667 213.333c12.971 9.301 30.080 10.496 44.288 3.2 14.251-7.296 23.168-21.973 23.168-37.931v-426.667c0-16-8.917-30.635-23.168-37.931-6.144-3.157-12.843-4.736-19.499-4.736zM298.667 578.475l-182.571-130.432 182.571-130.432v260.864z" />
<glyph unicode="&#xe92c;" glyph-name="expand-vertical" horiz-adv-x="859" d="M815.765 405.967h-772.83c-23.7 0-42.935 19.149-42.935 42.763s19.235 42.763 42.935 42.763h772.83c23.7 0 42.935-19.149 42.935-42.763s-19.235-42.763-42.935-42.763zM644.884 576.977c-0.301 0-0.558 1.76-0.859 1.76h-429.35c-16.101 0-30.827 7.213-38.169 21.468s-6.097 31.385 3.22 44.395l214.675 299.343c16.144 22.455 53.755 22.455 69.898 0l210.467-293.504c8.029-7.771 13.052-18.634 13.052-30.699 0-23.614-19.235-42.763-42.935-42.763zM429.35 845.492l-131.252-182.989h262.505l-131.252 182.989zM214.632 320.44h429.35c16.058 0 30.827-8.93 38.169-23.185 7.385-14.254 6.097-31.385-3.22-44.438l-214.675-299.3c-8.072-11.249-21.081-17.904-34.949-17.904s-26.877 6.655-34.949 17.904l-214.675 299.3c-9.317 13.052-10.562 30.183-3.22 44.438s22.069 23.185 38.169 23.185zM429.307 51.925l131.252 182.989h-262.505l131.252-182.989z" />
<glyph unicode="&#xe92d;" glyph-name="expand" horiz-adv-x="1021" d="M1017.319-38.261c-4.283-10.407-12.591-18.716-22.955-23.041-5.225-2.141-10.707-3.298-16.274-3.298h-340.049c-23.469 0-42.485 19.101-42.485 42.699 0 23.555 19.015 42.613 42.485 42.613l237.734-0.257-310.284 311.44c-16.617 16.66-16.617 43.684 0 60.344s43.513 16.66 60.087 0l315.294-316.494v244.415c0 23.555 13.748 41.928 37.217 41.928 23.512 0 42.527-19.101 42.527-42.699v-341.291c0 0 0 0 0-0.043 0-5.525-1.114-11.092-3.298-16.317zM425.489 490.056c-10.878 0-21.756 4.197-30.022 12.506l-310.926 312.082 0.899-239.233c0-23.555-19.015-42.656-42.527-42.656-23.469 0-42.485 19.101-42.485 42.656v341.333c0 0 0 0 0 0v0c0 0.043 0 0.086 0 0.128 0.043 5.482 1.156 11.007 3.255 16.189 4.326 10.407 12.591 18.716 22.998 23.041 5.225 2.184 10.75 3.298 16.317 3.298h340.006c23.469 0 42.485-19.101 42.485-42.656s-17.902-39.829-41.371-39.829h-241.417l312.853-314.010c16.617-16.66 16.617-43.684 0-60.344-8.308-8.308-19.187-12.506-30.065-12.506z" />
<glyph unicode="&#xe92e;" glyph-name="eye-off" d="M115.968-4.395c-8.32-8.32-19.243-12.459-30.165-12.459s-21.845 4.139-30.165 12.459c-16.683 16.555-16.683 43.477 0 60.075l131.456 130.944c-139.477 89.216-187.093 212.651-187.093 263.979 0 110.976 179.413 382.421 512 382.421 128.085 0 208.853-38.699 253.525-70.315l143.445 142.848c16.64 16.597 43.648 16.597 60.331 0 16.64-16.597 16.64-43.52 0-60.075l-853.333-849.877zM397.312 395.989l169.771 169.088c-17.109 8.149-35.755 12.971-55.083 12.971-70.571 0-128-57.216-128-127.488 0-19.115 5.163-37.504 13.312-54.571zM512 748.032c-289.451 0-426.667-238.592-426.667-297.429 0-18.944 30.464-124.544 163.968-201.984l86.955 86.571c-2.987 2.773-6.485 4.821-8.661 8.491-18.944 32.299-28.928 69.248-28.928 106.88 0 117.12 95.701 212.437 213.333 212.437 42.197 0 82.773-12.843 117.461-35.797l74.325 74.027c-35.2 21.675-96.085 46.805-191.787 46.805zM511.957 238.165c-22.272 0-41.045 17.195-42.539 39.68-1.536 23.424 16.256 43.648 39.808 45.184 70.016 4.565 126.293 60.587 130.859 130.347 1.536 23.381 22.443 41.216 45.355 39.595 23.509-1.493 41.344-21.717 39.808-45.141-7.339-112.128-97.835-202.24-210.475-209.621-0.939-0.043-1.877-0.043-2.816-0.043zM394.283 167.211c37.205-9.301 76.843-14.037 117.717-14.037 289.451 0 426.667 238.549 426.667 297.429 0 17.749-18.475 75.477-75.605 140.459-15.531 17.707-13.739 44.544 4.011 59.989 17.707 15.445 44.672 13.653 60.203-4.011 58.752-66.816 96.725-143.957 96.725-196.437 0-110.976-179.413-382.421-512-382.421-47.915 0-94.549 5.589-138.581 16.64-22.869 5.717-36.693 28.843-30.976 51.584 5.76 22.784 28.928 36.565 51.84 30.805z" />
<glyph unicode="&#xe92f;" glyph-name="eye" d="M512 64c-332.587 0-512 272.555-512 384s179.413 384 512 384c332.587 0 512-272.555 512-384s-179.413-384-512-384zM512 746.667c-289.451 0-426.667-239.573-426.667-298.667s137.216-298.667 426.667-298.667c289.451 0 426.667 239.573 426.667 298.667s-137.216 298.667-426.667 298.667zM512 234.667c-117.632 0-213.333 95.701-213.333 213.333s95.701 213.333 213.333 213.333c117.632 0 213.333-95.701 213.333-213.333s-95.701-213.333-213.333-213.333zM512 576c-70.571 0-128-57.429-128-128s57.429-128 128-128c70.571 0 128 57.429 128 128s-57.429 128-128 128z" />
<glyph unicode="&#xe930;" glyph-name="fingerprint" horiz-adv-x="1020" d="M984.832 440.277c-2.261-0.341-4.523-0.512-6.741-0.512-20.565 0-38.613 14.933-41.984 35.925-7.339 45.995-23.040 97.963-40.96 135.595-10.112 21.291-1.152 46.72 20.053 56.917 21.077 10.155 46.592 1.152 56.704-20.139 21.504-45.184 39.552-104.576 48.213-158.891 3.712-23.253-12.075-45.141-35.285-48.896zM870.613 695.339c-12.629 0-25.173 5.675-33.579 16.469-80.341 103.509-201.131 162.859-331.349 162.859-69.12 0-134.059-14.464-192.981-42.965-21.163-10.197-46.592-1.365-56.832 19.925-10.197 21.205-1.323 46.72 19.84 56.917 70.571 34.133 147.968 51.456 229.973 51.456 156.672 0 301.867-71.339 398.507-195.755 14.421-18.56 11.093-45.397-7.424-59.904-7.765-6.059-16.981-9.003-26.155-9.003zM428.117 752.896c9.557-21.547-0.171-46.72-21.632-56.277-98.517-43.819-167.296-146.304-167.296-249.259 0-14.891 0.299-28.288 0.811-40.448 0.981-23.552-17.28-43.435-40.789-44.416-0.597 0-1.152 0-1.749 0-22.699 0-41.557 17.963-42.496 40.917-0.512 13.227-0.853 27.776-0.853 43.947 0 135.68 89.6 270.251 217.899 327.296 21.504 9.515 46.635-0.213 56.107-21.76zM84.693 448.64c0-59.349 6.699-95.787 13.781-134.4 5.888-32.299 12.032-65.707 15.147-113.493 1.536-23.509-16.256-43.819-39.68-45.355-0.939-0.043-1.877-0.085-2.816-0.085-22.229 0-40.96 17.323-42.411 39.893-2.773 42.795-8.448 73.728-13.952 103.637-7.467 40.619-15.147 82.645-15.147 149.803 0 152.192 57.173 288.043 161.067 382.421 17.408 15.872 44.288 14.507 60.117-2.944 15.744-17.493 14.421-44.459-2.987-60.288-85.845-78.037-133.12-191.36-133.12-319.189zM180.139 110.848c6.869 20.48 11.392 34.048 11.392 55.083 0 39.509-6.741 64.469-13.269 88.619l-4.565 17.408c-5.632 22.869 8.277 45.995 31.061 51.669 22.741 5.717 45.867-8.32 51.541-31.189l4.096-15.573c7.211-26.752 16.256-60.117 16.256-110.933 0-34.987-8.064-59.008-15.829-82.219-3.115-9.387-6.528-19.541-9.771-31.659-5.12-19.029-22.272-31.616-41.088-31.616-3.627 0-7.339 0.469-11.008 1.451-22.699 6.101-36.181 29.483-30.080 52.267 3.712 13.995 7.637 25.813 11.264 36.693zM317.227 24.448c18.091 40.192 30.037 66.731 30.037 134.144 0 97.451-10.411 132.437-20.523 166.229-8.917 29.867-18.133 60.672-18.133 122.539 0 113.621 84.736 199.339 197.077 199.339 13.099 0 26.112-1.195 38.656-3.456 23.125-4.181 38.485-26.368 34.304-49.579-4.181-23.168-26.283-38.528-49.408-34.389-7.68 1.365-15.531 2.048-23.552 2.048-65.92 0-111.957-46.848-111.957-113.963 0-49.323 6.4-70.869 14.507-98.048 11.307-37.888 24.107-80.725 24.107-190.72 0-85.76-18.261-126.336-37.589-169.259-3.499-7.808-7.168-15.915-10.837-24.704-6.869-16.256-22.613-26.027-39.211-26.027-5.504 0-11.136 1.067-16.555 3.371-21.632 9.173-31.744 34.219-22.613 55.936 3.968 9.429 7.893 18.091 11.691 26.539zM544.341 182.016c-0.128 0-0.299 0-0.427 0-23.467 0.213-42.325 19.499-42.155 43.051 1.067 114.219-31.573 196.693-35.285 205.739l39.211 16.555 40.576 12.928c6.059-14.293 41.771-107.648 40.619-236.032-0.256-23.424-19.243-42.24-42.539-42.24zM503.168 100.437c2.773 23.381 24.149 40.064 47.275 37.248 23.339-2.816 39.979-24.064 37.163-47.445-11.179-93.696-44.203-133.547-50.688-140.587-8.363-9.045-19.797-13.653-31.232-13.653-10.325 0-20.736 3.755-28.885 11.392-16.981 15.744-18.219 42.155-3.029 59.477 1.408 1.792 21.589 28.672 29.397 93.568zM680.277 554.069c19.413-28.928 32.896-64.171 40.149-104.789l2.389-13.44c15.957-88.533 31.019-172.117 2.645-361.728-0.128-0.768-12.544-79.531-30.592-113.536-7.68-14.421-22.357-22.656-37.589-22.656-6.741 0-13.611 1.621-19.968 5.035-20.736 11.093-28.587 36.907-17.579 57.728 6.357 11.989 17.365 58.155 21.589 86.144 26.283 175.616 13.099 248.96-2.219 333.867l-2.432 13.568c-5.12 28.885-14.208 53.12-27.008 72.149-13.099 19.541-7.936 46.037 11.52 59.221 19.541 13.184 45.952 7.979 59.093-11.563zM513.749 717.952c-23.424 1.664-41.088 22.101-39.424 45.611 1.707 23.509 21.845 41.045 45.483 39.509 201.344-14.421 306.645-152.235 338.091-276.352l3.029-11.861c26.197-103.339 37.077-146.133 34.987-272.555-1.493-90.709-16.64-161.749-25.515-196.053-4.992-19.2-22.272-31.915-41.173-31.915-3.541 0-7.125 0.427-10.752 1.365-22.699 5.931-36.352 29.227-30.421 52.053 7.936 30.592 21.461 94.123 22.784 175.957 1.877 115.029-6.784 149.077-32.384 250.112l-3.029 11.861c-24.107 95.317-105.515 201.088-261.675 212.267z" />
<glyph unicode="&#xe931;" glyph-name="flash-2" horiz-adv-x="665" d="M649.262 485.607l-350.038-519.504c-5.832-17.367-21.869-29.674-40.737-29.674-1.801 0-3.602 0.086-5.403 0.343-20.24 2.401-34.734 18.224-37.135 37.092-0.257 1.158-0.129 2.358-0.3 3.516-0.086 2.316-0.815 4.46-0.515 6.818l0.386 3.388c0.214 1.587 0.257 3.13 0.6 4.717l41.166 327.397-200.855 0.043c-31.646 0-45.583 16.981-51.071 27.101-15.48 28.516 3.645 56.088 9.906 65.179l425.209 532.326c14.88 18.568 42.324 21.826 61.234 7.376 10.635-8.105 15.78-20.025 16.209-32.204 0.686-5.103 0.686-10.42-0.686-15.737l-82.246-328.469h174.397c31.475 0 45.154-16.338 50.514-26.072 14.58-26.672-1.844-50.685-10.635-63.636zM415.946 490.152c-19.597 0-37.692 8.405-50.943 23.756-15.394 17.796-22.47 43.353-18.396 66.637l39.236 156.902-265.691-332.5h157.030c24.485 0 43.439-7.461 56.26-22.212 6.818-7.847 17.581-24.914 13.207-51.329l-21.612-171.996 222.853 330.742h-131.945z" />
<glyph unicode="&#xe932;" glyph-name="flash-3" horiz-adv-x="633" d="M87.509-64c-7.083 0-14.293 1.707-20.864 5.205-18.005 9.557-26.795 29.995-21.163 49.195l71.595 244.267h-29.525c-14.549 0-28.117 7.040-36.267 18.731-8.107 11.733-9.771 26.624-4.395 39.808l63.531 154.795h-66.645c-13.781 0-26.752 6.315-35.029 17.109-8.277 10.752-10.837 24.661-6.955 37.547l128.341 426.667c5.461 18.176 22.571 30.677 41.984 30.677h417.28c16.256 0 31.147-8.747 38.741-22.741 7.552-13.995 6.571-30.933-2.603-43.989l-192.469-274.603h48.384c16.128 0 30.976-8.661 38.613-22.528 7.595-13.867 6.741-30.72-2.219-43.776l-129.664-189.696h5.717c17.195 0 32.768-9.771 39.851-25.003 7.125-15.275 4.395-33.152-6.912-45.739l-306.347-341.333c-8.576-9.515-20.651-14.592-32.981-14.592zM152.192 320h22.912c13.739 0 26.667-6.272 34.901-16.981 8.277-10.667 10.923-24.533 7.168-37.419l-33.835-115.413 114.816 127.915c-12.843 2.389-24.064 10.283-30.379 21.76-7.595 13.867-6.741 30.72 2.176 43.819l129.707 189.653h-49.493c-16.256 0-31.147 8.747-38.699 22.741-7.595 13.995-6.613 30.933 2.56 43.989l192.469 274.603h-301.568l-102.699-341.333h72.875c14.507 0 28.075-7.040 36.224-18.731 8.149-11.733 9.771-26.624 4.395-39.808l-63.531-154.795z" />
<glyph unicode="&#xe933;" glyph-name="flash-4" horiz-adv-x="504" d="M502.039 461.739c0.945-2.834 1.374-5.667 1.717-8.63 0.215-1.717 0.988-3.22 0.988-4.98 0-1.889-0.301-3.392-0.343-5.195-0.043-0.215-0.043-0.429-0.043-0.644-0.73-15.328-4.336-27.393-15.027-32.459l-262.505-453.093c-7.857-13.525-21.897-21.038-36.323-21.038-7.256 0-14.598 1.889-21.296 5.882-20.008 11.936-26.706 38.126-14.941 58.435l235.756 406.981h-342.149c-2.061-0.301-3.95-1.589-6.054-1.589-7.256 0-14.598 1.889-21.296 5.882-12.194 7.256-18.677 19.922-19.836 33.189-0.129 1.288-0.902 2.318-0.902 3.649 0 0.945 0.472 1.717 0.515 2.619 0.172 2.92 0.945 5.624 1.717 8.458 0.73 2.748 1.417 5.41 2.662 7.943 0.429 0.816 0.429 1.76 0.902 2.619l272.122 469.709c11.807 20.351 37.611 27.092 57.619 15.156 20.051-11.936 26.749-38.126 14.941-58.435l-234.855-405.392h347.258c0.945 0 1.76-0.472 2.705-0.558 2.748-0.172 5.367-0.902 8.115-1.632 2.791-0.773 5.453-1.503 7.986-2.791 0.816-0.429 1.717-0.429 2.533-0.902 1.503-0.902 2.404-2.361 3.778-3.435 2.318-1.803 4.508-3.564 6.397-5.839 1.803-2.061 3.134-4.294 4.465-6.698 1.331-2.318 2.533-4.594 3.392-7.213z" />
<glyph unicode="&#xe934;" glyph-name="flip-horizontal" d="M1000.875 196.736c-6.187-3.2-12.885-4.736-19.541-4.736-8.747 0-17.408 2.688-24.789 7.936l-298.667 213.333c-11.221 8.021-17.877 20.949-17.877 34.731s6.656 26.709 17.877 34.731l298.667 213.333c12.971 9.301 30.037 10.539 44.331 3.2 14.208-7.296 23.125-21.973 23.125-37.931v-426.667c0-16-8.917-30.635-23.125-37.931zM938.667 578.432l-182.571-130.432 182.571-130.432v260.864zM512 21.333c-23.595 0-42.667 19.115-42.667 42.667v768c0 23.552 19.072 42.667 42.667 42.667s42.667-19.115 42.667-42.667v-768c0-23.552-19.072-42.667-42.667-42.667zM67.456 199.936c-7.381-5.248-16.043-7.936-24.789-7.936-6.656 0-13.397 1.536-19.541 4.736-14.208 7.296-23.125 21.931-23.125 37.931v426.667c0 15.957 8.917 30.635 23.125 37.931 14.208 7.339 31.317 6.101 44.331-3.2l298.667-213.333c11.221-8.021 17.877-20.949 17.877-34.731s-6.656-26.709-17.877-34.731l-298.667-213.333zM85.333 578.432v-260.864l182.571 130.432-182.571 130.432z" />
<glyph unicode="&#xe935;" glyph-name="flip-vertical" horiz-adv-x="853" d="M810.667 405.333h-768c-23.552 0-42.667 19.115-42.667 42.667s19.115 42.667 42.667 42.667h768c23.552 0 42.667-19.115 42.667-42.667s-19.115-42.667-42.667-42.667zM461.397 593.877c-8.021-11.221-20.949-17.877-34.731-17.877s-26.709 6.656-34.731 17.877l-213.333 298.667c-9.259 12.971-10.539 30.123-3.2 44.288 7.296 14.251 21.973 23.168 37.931 23.168h426.667c16 0 30.635-8.917 37.931-23.168 7.296-14.165 6.059-31.317-3.2-44.288l-213.333-298.667zM296.235 874.667l130.432-182.613 130.432 182.613h-260.864zM391.936 302.123c16.043 22.4 53.419 22.4 69.461 0l209.152-292.821c7.979-7.765 12.971-18.645 12.971-30.635 0-23.552-19.115-42.667-42.667-42.667-0.256 0-0.555 0-0.853 0h-426.667c-15.957 0-30.635 8.917-37.931 23.168-7.339 14.208-6.059 31.317 3.2 44.288l213.333 298.667zM557.099 21.333l-130.432 182.613-130.432-182.613h260.864z" />
<glyph unicode="&#xe936;" glyph-name="forward" horiz-adv-x="900" d="M449.547-63.743c-248.054 0-449.847 201.665-449.847 449.547 0 245.912 201.408 445.992 448.991 445.992h6.982l-55.856 55.813c-16.705 16.663-16.705 43.691 0 60.354 16.663 16.663 43.691 16.663 60.397 0l128.118-128.032c16.663-16.62 16.663-43.691 0-60.311l-128.118-128.032c-8.353-8.353-19.275-12.508-30.198-12.508s-21.846 4.155-30.198 12.508c-16.705 16.62-16.705 43.691 0 60.311l54.571 54.528h-5.697c-200.465 0-363.579-161.786-363.579-360.623 0-200.808 163.499-364.178 364.435-364.178 200.979 0 364.478 163.371 364.478 364.178 0 23.559 19.147 42.663 42.706 42.663 23.602 0 42.706-19.104 42.706-42.663 0-247.883-201.793-449.547-449.89-449.547z" />
<glyph unicode="&#xe937;" glyph-name="grid-circles" d="M896 320c-70.571 0-128 57.429-128 128s57.429 128 128 128c70.571 0 128-57.429 128-128s-57.429-128-128-128zM896 490.667c-23.509 0-42.667-19.115-42.667-42.667s19.157-42.667 42.667-42.667c23.509 0 42.667 19.115 42.667 42.667s-19.157 42.667-42.667 42.667zM896 704c-70.571 0-128 57.429-128 128s57.429 128 128 128c70.571 0 128-57.429 128-128s-57.429-128-128-128zM896 874.667c-23.509 0-42.667-19.115-42.667-42.667 0-23.509 19.157-42.667 42.667-42.667s42.667 19.157 42.667 42.667c0 23.552-19.157 42.667-42.667 42.667zM512-64c-70.571 0-128 57.429-128 128s57.429 128 128 128c70.571 0 128-57.429 128-128s-57.429-128-128-128zM512 106.667c-23.509 0-42.667-19.157-42.667-42.667s19.157-42.667 42.667-42.667c23.509 0 42.667 19.157 42.667 42.667s-19.157 42.667-42.667 42.667zM512 320c-70.571 0-128 57.429-128 128s57.429 128 128 128c70.571 0 128-57.429 128-128s-57.429-128-128-128zM512 490.667c-23.509 0-42.667-19.115-42.667-42.667s19.157-42.667 42.667-42.667c23.509 0 42.667 19.115 42.667 42.667s-19.157 42.667-42.667 42.667zM512 704c-70.571 0-128 57.429-128 128s57.429 128 128 128c70.571 0 128-57.429 128-128s-57.429-128-128-128zM512 874.667c-23.509 0-42.667-19.115-42.667-42.667 0-23.509 19.157-42.667 42.667-42.667s42.667 19.157 42.667 42.667c0 23.552-19.157 42.667-42.667 42.667zM128-64c-70.571 0-128 57.429-128 128s57.429 128 128 128c70.571 0 128-57.429 128-128s-57.429-128-128-128zM128 106.667c-23.509 0-42.667-19.157-42.667-42.667s19.157-42.667 42.667-42.667c23.509 0 42.667 19.157 42.667 42.667s-19.157 42.667-42.667 42.667zM128 320c-70.571 0-128 57.429-128 128s57.429 128 128 128c70.571 0 128-57.429 128-128s-57.429-128-128-128zM128 490.667c-23.509 0-42.667-19.115-42.667-42.667s19.157-42.667 42.667-42.667c23.509 0 42.667 19.115 42.667 42.667s-19.157 42.667-42.667 42.667zM128 704c-70.571 0-128 57.429-128 128s57.429 128 128 128c70.571 0 128-57.429 128-128s-57.429-128-128-128zM128 874.667c-23.509 0-42.667-19.115-42.667-42.667 0-23.509 19.157-42.667 42.667-42.667s42.667 19.157 42.667 42.667c0 23.552-19.157 42.667-42.667 42.667zM896 192c70.571 0 128-57.429 128-128s-57.429-128-128-128c-70.571 0-128 57.429-128 128s57.429 128 128 128zM896 21.333c23.509 0 42.667 19.157 42.667 42.667s-19.157 42.667-42.667 42.667c-23.509 0-42.667-19.157-42.667-42.667s19.157-42.667 42.667-42.667z" />
<glyph unicode="&#xe938;" glyph-name="grid-squares-2" d="M938.667-64h-298.667c-47.061 0-85.333 38.272-85.333 85.333v298.667c0 47.061 38.272 85.333 85.333 85.333h298.667c47.061 0 85.333-38.272 85.333-85.333v-298.667c0-47.061-38.272-85.333-85.333-85.333zM640 320v-298.667h298.539l0.128 298.667h-298.667zM938.667 490.667h-298.667c-47.061 0-85.333 38.272-85.333 85.333v298.667c0 47.061 38.272 85.333 85.333 85.333h298.667c47.061 0 85.333-38.272 85.333-85.333v-298.667c0-47.061-38.272-85.333-85.333-85.333zM640 874.667v-298.667h298.539l0.128 298.667h-298.667zM384.085-64h-298.752c-47.061 0-85.333 38.272-85.333 85.333v298.667c0 47.061 38.272 85.333 85.333 85.333h298.752c47.061 0 85.333-38.272 85.333-85.333v-298.667c0-47.061-38.272-85.333-85.333-85.333zM85.333 320v-298.667h298.624l0.128 298.667h-298.752zM384.085 490.667h-298.752c-47.061 0-85.333 38.272-85.333 85.333v298.667c0 47.061 38.272 85.333 85.333 85.333h298.752c47.061 0 85.333-38.272 85.333-85.333v-298.667c0-47.061-38.272-85.333-85.333-85.333zM85.333 874.667v-298.667h298.624l0.128 298.667h-298.752z" />
<glyph unicode="&#xe939;" glyph-name="grid-squares" d="M979.478-64h-222.609c-24.576 0-44.522 19.946-44.522 44.522v222.609c0 24.576 19.946 44.522 44.522 44.522h222.609c24.576 0 44.522-19.946 44.522-44.522v-222.609c0-24.576-19.946-44.522-44.522-44.522zM934.957 158.609h-133.565v-133.565h133.565v133.565zM979.478 292.174h-222.609c-24.576 0-44.522 19.946-44.522 44.522v222.609c0 24.576 19.946 44.522 44.522 44.522h222.609c24.576 0 44.522-19.946 44.522-44.522v-222.609c0-24.576-19.946-44.522-44.522-44.522zM934.957 514.783h-133.565v-133.565h133.565v133.565zM979.478 648.348h-222.609c-24.576 0-44.522 19.946-44.522 44.522v222.609c0 24.576 19.946 44.522 44.522 44.522h222.609c24.576 0 44.522-19.946 44.522-44.522v-222.609c0-24.576-19.946-44.522-44.522-44.522zM934.957 870.957h-133.565v-133.565h133.565v133.565zM623.304-64h-222.609c-24.576 0-44.522 19.946-44.522 44.522v222.609c0 24.576 19.946 44.522 44.522 44.522h222.609c24.576 0 44.522-19.946 44.522-44.522v-222.609c0-24.576-19.946-44.522-44.522-44.522zM578.783 158.609h-133.565v-133.565h133.565v133.565zM623.304 292.174h-222.609c-24.576 0-44.522 19.946-44.522 44.522v222.609c0 24.576 19.946 44.522 44.522 44.522h222.609c24.576 0 44.522-19.946 44.522-44.522v-222.609c0-24.576-19.946-44.522-44.522-44.522zM578.783 514.783h-133.565v-133.565h133.565v133.565zM623.304 648.348h-222.609c-24.576 0-44.522 19.946-44.522 44.522v222.609c0 24.576 19.946 44.522 44.522 44.522h222.609c24.576 0 44.522-19.946 44.522-44.522v-222.609c0-24.576-19.946-44.522-44.522-44.522zM578.783 870.957h-133.565v-133.565h133.565v133.565zM267.13-64h-222.609c-24.576 0-44.522 19.946-44.522 44.522v222.609c0 24.576 19.946 44.522 44.522 44.522h222.609c24.576 0 44.522-19.946 44.522-44.522v-222.609c0-24.576-19.946-44.522-44.522-44.522zM222.609 158.609h-133.565v-133.565h133.565v133.565zM267.13 292.174h-222.609c-24.576 0-44.522 19.946-44.522 44.522v222.609c0 24.576 19.946 44.522 44.522 44.522h222.609c24.576 0 44.522-19.946 44.522-44.522v-222.609c0-24.576-19.946-44.522-44.522-44.522zM222.609 514.783h-133.565v-133.565h133.565v133.565zM267.13 648.348h-222.609c-24.576 0-44.522 19.946-44.522 44.522v222.609c0 24.576 19.946 44.522 44.522 44.522h222.609c24.576 0 44.522-19.946 44.522-44.522v-222.609c0-24.576-19.946-44.522-44.522-44.522zM222.609 870.957h-133.565v-133.565h133.565v133.565z" />
<glyph unicode="&#xe93a;" glyph-name="hamburger-menu-1" d="M981.333 405.333h-938.667c-23.552 0-42.667 19.115-42.667 42.667s19.115 42.667 42.667 42.667h938.667c23.552 0 42.667-19.115 42.667-42.667s-19.115-42.667-42.667-42.667zM981.333 746.667h-938.667c-23.552 0-42.667 19.115-42.667 42.667s19.115 42.667 42.667 42.667h938.667c23.552 0 42.667-19.115 42.667-42.667s-19.115-42.667-42.667-42.667zM42.667 149.333h938.667c23.552 0 42.667-19.115 42.667-42.667s-19.115-42.667-42.667-42.667h-938.667c-23.552 0-42.667 19.115-42.667 42.667s19.115 42.667 42.667 42.667z" />
<glyph unicode="&#xe93b;" glyph-name="hamburger-menu-2" d="M981.333 405.333h-938.667c-23.552 0-42.667 19.115-42.667 42.667s19.115 42.667 42.667 42.667h938.667c23.552 0 42.667-19.115 42.667-42.667s-19.115-42.667-42.667-42.667zM981.333 618.667h-938.667c-23.552 0-42.667 19.115-42.667 42.667s19.115 42.667 42.667 42.667h938.667c23.552 0 42.667-19.115 42.667-42.667s-19.115-42.667-42.667-42.667zM42.667 277.333h938.667c23.552 0 42.667-19.115 42.667-42.667s-19.115-42.667-42.667-42.667h-938.667c-23.552 0-42.667 19.115-42.667 42.667s19.115 42.667 42.667 42.667z" />
<glyph unicode="&#xe93c;" glyph-name="hand" horiz-adv-x="848" d="M550.571-64c-151.381 0-253.141 49.621-311.083 151.637-117.077 206.123-221.227 282.069-222.251 282.837-1.024 0.725-1.536 1.835-2.475 2.603-0.939 0.811-2.176 1.152-3.072 2.091-1.28 1.237-1.792 2.901-2.859 4.267-1.621 2.133-3.115 4.224-4.309 6.571-1.408 2.731-2.389 5.419-3.157 8.32-0.597 2.347-1.109 4.565-1.323 6.955-0.299 3.072-0.171 6.016 0.171 9.088 0.299 2.347 0.683 4.565 1.365 6.912 0.853 3.029 2.176 5.803 3.755 8.619 0.725 1.28 0.896 2.731 1.749 3.968 0.64 0.939 1.664 1.408 2.389 2.304 0.853 1.024 1.237 2.347 2.219 3.328 53.803 54.187 170.709 73.515 242.005 18.261v314.923c0 58.069 46.976 105.301 104.747 105.301 8.533 0 16.597-1.109 24.363-2.944 8.576 45.781 48.213 88.96 104.149 88.96 55.253 0 94.677-42.624 103.893-88.32 7.765 1.835 15.872 2.987 24.405 2.987 64.853 0 104.96-55.339 104.96-106.667v-24.149c6.869 1.408 13.952 2.133 21.205 2.133 63.445 0 106.027-55.467 106.027-107.307v-404.011c0-143.616-113.493-298.667-296.875-298.667zM762.667 638.677c0 7.893-7.125 22.016-21.248 22.016-14.976 0-21.205-13.056-21.205-20.011v-192.683c0-23.552-18.987-42.667-42.368-42.667-23.424 0-42.453 19.115-42.453 42.667v320c0 7.424-5.888 21.333-20.139 21.333-13.781 0-22.272-15.104-22.272-23.339v-275.328c0-23.552-18.987-42.667-42.411-42.667-23.381 0-42.411 19.115-42.411 42.667v360.661c0 9.301-8.448 23.339-21.205 23.339-14.123 0-21.163-14.080-21.163-22.016v-361.984c0-23.552-19.029-42.667-42.453-42.667-23.381 0-42.368 19.115-42.368 42.667v275.328c0 8.021-8.576 22.656-22.528 22.656-15.061 0-19.925-13.483-19.925-19.968v-406.016c0-1.408-0.64-2.603-0.768-4.011-0.555-8.917-3.2-17.792-9.429-25.131-8.405-9.813-20.267-14.848-32.213-14.848-9.771 0-19.584 3.371-27.605 10.283l-67.157 57.984c-20.693 16.427-56.149 18.261-86.357 10.496 46.165-45.184 119.595-129.152 198.187-267.477 26.453-46.635 79.872-108.629 237.397-108.629 130.987 0 212.096 110.763 212.096 213.333v404.011z" />
<glyph unicode="&#xe93d;" glyph-name="help-1" d="M512-64c-282.325 0-512 229.675-512 512s229.675 512 512 512c282.325 0 512-229.675 512-512s-229.675-512-512-512zM918.997 320h-186.624c-22.357-38.357-54.059-70.016-92.373-92.416v-186.581c132.48 41.771 237.227 146.517 278.997 278.997zM512 618.581c-94.123 0-170.667-76.501-170.667-170.581 0-94.123 76.544-170.667 170.667-170.667s170.667 76.544 170.667 170.667c0 94.080-76.544 170.581-170.667 170.581zM512 21.333c14.421 0 28.629 0.768 42.667 2.176v172.8c-13.952-2.347-28.075-4.309-42.667-4.309s-28.715 1.963-42.667 4.309v-172.8c14.037-1.408 28.245-2.176 42.667-2.176zM384 41.003v186.624c-38.357 22.357-70.016 54.016-92.373 92.373h-186.624c41.771-132.48 146.517-237.227 278.997-278.997zM85.333 448c0-14.379 0.768-28.629 2.176-42.667h172.8c-2.347 13.952-4.309 28.075-4.309 42.667s1.963 28.715 4.309 42.667h-172.8c-1.408-14.037-2.176-28.288-2.176-42.667zM105.003 576h186.624c22.357 38.315 54.059 69.973 92.373 92.331v186.667c-132.48-41.771-237.227-146.517-278.997-278.997zM512 874.667c-14.421 0-28.629-0.768-42.667-2.176v-172.885c13.952 2.347 28.075 4.309 42.667 4.309s28.715-1.963 42.667-4.309v172.885c-14.037 1.408-28.245 2.176-42.667 2.176zM640 854.997v-186.667c38.315-22.357 70.016-54.016 92.373-92.331h186.624c-41.771 132.48-146.517 237.227-278.997 278.997zM763.691 490.667c2.347-13.952 4.309-28.075 4.309-42.667s-1.963-28.715-4.309-42.667h172.8c1.408 14.037 2.176 28.288 2.176 42.667s-0.768 28.629-2.176 42.667h-172.8z" />
<glyph unicode="&#xe93e;" glyph-name="help-2" d="M874.709 87.083c-0.299-0.341-0.384-0.768-0.725-1.067-0.299-0.341-0.725-0.427-1.067-0.725-92.629-92.203-220.203-149.291-360.917-149.291-140.672 0-268.203 57.045-360.832 149.205-0.384 0.341-0.853 0.427-1.195 0.811-0.384 0.341-0.469 0.853-0.853 1.195-92.075 92.629-149.12 220.16-149.12 360.789 0 140.501 56.96 267.904 148.907 360.533 0.427 0.469 0.597 1.109 1.067 1.579s1.109 0.597 1.579 1.067c92.587 91.904 219.989 148.821 360.448 148.821 140.715 0 268.288-57.088 360.917-149.291 0.341-0.299 0.768-0.384 1.067-0.725 0.341-0.299 0.427-0.725 0.725-1.067 92.203-92.629 149.291-220.203 149.291-360.917s-57.088-268.288-149.291-360.917zM640 448c0 70.571-57.429 128-128 128s-128-57.429-128-128c0-70.571 57.429-128 128-128s128 57.429 128 128zM512 21.333c102.315 0 196.267 36.267 269.824 96.512l-152.363 152.363c-33.749-22.357-74.069-35.541-117.461-35.541s-83.712 13.184-117.461 35.541l-152.405-152.363c73.6-60.245 167.552-96.512 269.867-96.512zM85.333 448c0-102.272 36.224-196.224 96.469-269.824l152.405 152.363c-22.357 33.749-35.541 74.069-35.541 117.461s13.184 83.712 35.541 117.461l-152.363 152.405c-60.245-73.6-96.512-167.552-96.512-269.867zM512 874.667c-102.315 0-196.224-36.267-269.824-96.469l152.363-152.405c33.749 22.357 74.069 35.541 117.461 35.541s83.712-13.184 117.461-35.541l152.363 152.363c-73.557 60.245-167.509 96.512-269.824 96.512zM842.155 717.824l-152.363-152.363c22.357-33.749 35.541-74.069 35.541-117.461s-13.184-83.712-35.541-117.461l152.363-152.363c60.245 73.557 96.512 167.509 96.512 269.824s-36.267 196.267-96.512 269.824z" />
<glyph unicode="&#xe93f;" glyph-name="home" horiz-adv-x="1021" d="M1006.441 374.466c-8.18-7.538-18.459-11.221-28.694-11.221-11.521 0-22.955 4.625-31.35 13.833l-11.135 12.206v-367.544c0-47.024-38.116-85.355-84.926-85.355h-169.896c-23.427 0-42.442 19.144-42.442 42.699 0 5.439 1.242 10.578 3.084 15.375v284.159l-257.906-0.771v-298.763c0-23.555-19.015-42.699-42.442-42.699h-169.896c-46.81 0-84.926 38.33-84.926 85.355v367.544l-11.135-12.206c-15.846-17.388-42.742-18.544-60.001-2.612-17.302 15.889-18.459 42.913-2.612 60.301l467.117 512.171c16.103 17.602 46.51 17.602 62.613 0l467.117-512.171c15.889-17.388 14.69-44.412-2.57-60.301zM855.218 477.037l-344.631 377.865-339.749-372.469v-460.693h127.411v256.107c0 47.067 38.116 85.398 84.926 85.398h254.822c46.81 0 84.926-38.33 84.926-85.398v-256.107l132.293-0.086v455.382z" />
<glyph unicode="&#xe940;" glyph-name="info" horiz-adv-x="1017" d="M867.584 85.931c-96.085-96.683-223.872-149.931-359.851-149.931-135.936 0-263.723 53.248-359.851 149.973-198.357 199.637-198.357 524.459 0 724.053 96.128 96.725 223.915 149.973 359.851 149.973 135.979 0 263.765-53.248 359.851-149.973 96.171-96.683 149.12-225.28 149.12-362.027s-52.949-265.344-149.12-362.069zM807.637 749.696c-80.085 80.597-186.581 124.971-299.904 124.971-113.28 0-219.776-44.373-299.861-124.971-165.333-166.357-165.333-437.035 0-603.392 80.085-80.597 186.581-124.971 299.861-124.971 113.323 0 219.819 44.373 299.904 124.971 80.128 80.555 124.245 187.733 124.245 301.696s-44.117 221.099-124.245 301.696zM592.597 149.333h-169.643c-23.381 0-42.411 19.115-42.411 42.667s19.029 42.667 42.411 42.667h42.411v170.667h-42.411c-23.381 0-42.411 19.115-42.411 42.667s19.029 42.667 42.411 42.667h84.821c23.424 0 42.411-19.115 42.411-42.667v-213.333h42.411c23.424 0 42.411-19.115 42.411-42.667s-18.987-42.667-42.411-42.667zM507.776 576c-46.763 0-84.821 38.315-84.821 85.376 0 47.019 38.059 85.291 84.821 85.291 46.805 0 84.821-38.272 84.821-85.291 0-47.061-38.016-85.376-84.821-85.376z" />
<glyph unicode="&#xe941;" glyph-name="inside" d="M938.709-64h-512.213c-47.061 0-85.291 38.272-85.291 85.333v213.333c0 23.552 19.072 42.667 42.624 42.667s42.667-19.115 42.667-42.667v-213.333h512.213v853.333h-512.213v-213.333c0-23.552-19.115-42.667-42.667-42.667s-42.624 19.115-42.624 42.667v213.333c0 47.061 38.229 85.333 85.291 85.333h512.213c47.061 0 85.333-38.272 85.333-85.333v-853.333c0-47.061-38.272-85.333-85.333-85.333zM524.288 588.501c-16.64 16.64-16.64 43.691 0 60.331 16.683 16.683 43.648 16.683 60.331 0l170.581-170.624c3.925-3.968 7.040-8.661 9.216-13.909 4.309-10.411 4.309-22.187 0-32.597-2.176-5.248-5.291-9.941-9.216-13.867l-170.581-170.667c-8.363-8.32-19.243-12.501-30.165-12.501s-21.845 4.181-30.165 12.501c-16.64 16.64-16.64 43.691 0 60.331l97.792 97.835h-579.456c-23.552 0-42.624 19.115-42.624 42.667s19.072 42.667 42.624 42.667h579.456l-97.792 97.835z" />
<glyph unicode="&#xe942;" glyph-name="key-1" horiz-adv-x="851" d="M552.789 362.667c-59.904 0-115.541 18.219-162.261 49.024l-163.712-173.056 101.333-101.803c16.597-16.64 16.597-43.691 0-60.331-8.32-8.32-19.157-12.501-30.037-12.501s-21.717 4.181-30.037 12.501l-99.797 100.309-65.664-69.376 98.133-98.603c16.597-16.64 16.597-43.691 0-60.331-8.277-8.363-19.157-12.501-30.037-12.501-10.837 0-21.717 4.139-29.995 12.501l-127.403 128c-1.92 1.92-2.816 4.309-4.267 6.485-1.664 2.389-3.669 4.565-4.779 7.168-1.067 2.56-1.195 5.248-1.749 7.936s-1.493 5.291-1.536 8.064c-0.043 2.645 0.853 5.205 1.323 7.808 0.469 2.773 0.555 5.589 1.579 8.235 0.981 2.517 2.859 4.608 4.309 6.912 1.493 2.304 2.389 4.907 4.395 6.955l314.88 332.843c-44.16 52.139-71.808 118.784-71.808 192.427 0 164.693 133.291 298.667 297.131 298.667 163.968 0 297.344-133.973 297.344-298.667s-133.376-298.667-297.344-298.667zM552.789 874.667c-116.992 0-212.224-95.701-212.224-213.333s95.232-213.333 212.224-213.333c117.163 0 212.437 95.701 212.437 213.333s-95.275 213.333-212.437 213.333z" />
<glyph unicode="&#xe943;" glyph-name="key-2" horiz-adv-x="1020" d="M700.843 319.957c-39.552 0-77.653 7.296-113.835 21.205l-77.44-81.024v-25.515c0-23.595-19.029-42.667-42.496-42.667h-85.035v-85.333c0-23.595-19.029-42.709-42.496-42.709h-84.992v-85.248c0-23.552-19.072-42.667-42.539-42.667h-170.027c-23.467 0-42.496 19.115-42.496 42.667v125.056c0 5.589 1.109 11.136 3.285 16.341 2.091 5.077 5.12 9.6 8.875 13.44 0.128 0.128 0.171 0.299 0.299 0.427l390.955 392.533c-13.696 36.181-20.864 74.155-20.864 113.536 0 176.427 143.019 320 318.805 320 175.829 0 318.805-143.573 318.805-320 0-176.469-142.976-320.043-318.805-320.043zM700.843 874.667c-128.896 0-233.771-105.301-233.771-234.667 0-37.035 8.32-72.448 24.704-105.344 9.685-19.413 2.731-42.112-14.72-53.931-0.384-0.427-0.512-1.024-0.939-1.451l-391.637-393.173v-64.768h85.035v85.291c0 23.552 19.029 42.624 42.496 42.624h85.035v85.376c0 23.552 19.029 42.624 42.496 42.624h85.035c0 3.285 1.152 6.144 1.835 9.173 0.469 2.261 0.512 4.608 1.365 6.741 1.28 3.243 3.413 5.845 5.419 8.619 1.152 1.621 1.749 3.541 3.2 5.035l109.653 114.816c0.512 0.512 1.237 0.725 1.792 1.195 2.176 2.091 4.693 3.541 7.253 5.077 2.219 1.365 4.309 2.901 6.699 3.797 2.517 0.939 5.163 1.237 7.808 1.707 2.731 0.469 5.333 1.067 8.107 1.024 2.517-0.043 4.949-0.768 7.467-1.323 2.944-0.597 5.803-1.109 8.619-2.347 0.683-0.299 1.408-0.213 2.091-0.555 32.64-16.555 67.968-24.917 104.96-24.917 128.939 0 233.813 105.259 233.813 234.709 0 129.365-104.875 234.667-233.813 234.667zM743.467 618.624c-35.243 0-63.872 28.715-63.872 64 0 35.328 28.629 64 63.872 64 35.115 0 63.659-28.672 63.659-64 0-35.285-28.544-64-63.659-64z" />
<glyph unicode="&#xe944;" glyph-name="label-cancel" d="M1010.517 420.608l-249.557-298.667c-8.064-9.685-20.011-15.275-32.597-15.275h-686.336c-23.467 0-42.539 19.115-42.539 42.667v597.333c0 23.552 19.072 42.667 42.539 42.667h686.336c12.587 0 24.533-5.589 32.597-15.275l249.557-298.624c13.227-15.872 13.227-38.997 0-54.827zM708.523 704h-623.957v-512h623.957l213.888 256-213.888 256zM582.571 289.835c-8.277-8.363-19.157-12.501-30.080-12.501-10.88 0-21.76 4.139-30.080 12.501l-97.536 97.835-97.536-97.835c-8.32-8.363-19.2-12.501-30.080-12.501s-21.76 4.139-30.080 12.501c-16.597 16.64-16.597 43.691 0 60.331l97.579 97.835-97.579 97.835c-16.597 16.64-16.597 43.691 0 60.331 16.64 16.683 43.563 16.683 60.16 0l97.536-97.835 97.536 97.835c16.64 16.683 43.563 16.683 60.16 0 16.64-16.64 16.64-43.691 0-60.331l-97.536-97.835 97.536-97.835c16.64-16.64 16.64-43.691 0-60.331z" />
<glyph unicode="&#xe945;" glyph-name="label" d="M728.32 106.667h-686.336c-23.509 0-42.539 19.115-42.539 42.667v597.333c0 23.552 19.029 42.667 42.539 42.667h686.336c12.587 0 24.491-5.589 32.597-15.275l249.557-298.624c13.227-15.872 13.227-38.997 0-54.827l-249.557-298.667c-8.107-9.685-20.011-15.275-32.597-15.275zM84.523 192h623.915l213.931 256-213.931 256h-623.915v-512z" />
<glyph unicode="&#xe946;" glyph-name="layout-1" d="M981.248-64h-383.061c-23.509 0-42.581 19.115-42.581 42.667v469.333c0 23.552 19.072 42.667 42.581 42.667h383.061c23.552 0 42.581-19.115 42.581-42.667v-469.333c0-23.552-19.029-42.667-42.581-42.667zM938.709 405.333h-297.941v-384h297.941v384zM981.248 576h-383.061c-23.509 0-42.581 19.115-42.581 42.667v298.667c0 23.552 19.072 42.667 42.581 42.667h383.061c23.552 0 42.581-19.115 42.581-42.667v-298.667c0-23.552-19.029-42.667-42.581-42.667zM938.709 874.667h-297.941v-213.333h297.941v213.333zM425.259-64h-383.061c-23.509 0-42.581 19.115-42.581 42.667v298.667c0 23.552 19.072 42.667 42.581 42.667h383.061c23.552 0 42.581-19.115 42.581-42.667v-298.667c0-23.552-19.029-42.667-42.581-42.667zM382.72 234.667h-297.941v-213.333h297.941v213.333zM425.259 405.333h-383.061c-23.509 0-42.581 19.115-42.581 42.667v469.333c0 23.552 19.072 42.667 42.581 42.667h383.061c23.552 0 42.581-19.115 42.581-42.667v-469.333c0-23.552-19.029-42.667-42.581-42.667zM382.72 874.667h-297.941v-384h297.941v384z" />
<glyph unicode="&#xe947;" glyph-name="layout-2" d="M981.333-64h-384c-23.552 0-42.667 19.115-42.667 42.667v938.667c0 23.552 19.115 42.667 42.667 42.667h384c23.552 0 42.667-19.115 42.667-42.667v-938.667c0-23.552-19.115-42.667-42.667-42.667zM938.667 874.667h-298.667v-853.333h298.667v853.333zM426.667-64h-384c-23.552 0-42.667 19.115-42.667 42.667v384c0 23.552 19.115 42.667 42.667 42.667h384c23.552 0 42.667-19.115 42.667-42.667v-384c0-23.552-19.115-42.667-42.667-42.667zM384 320h-298.667v-298.667h298.667v298.667zM426.667 490.667h-384c-23.552 0-42.667 19.115-42.667 42.667v384c0 23.552 19.115 42.667 42.667 42.667h384c23.552 0 42.667-19.115 42.667-42.667v-384c0-23.552-19.115-42.667-42.667-42.667zM384 874.667h-298.667v-298.667h298.667v298.667z" />
<glyph unicode="&#xe948;" glyph-name="layout-3" horiz-adv-x="981" d="M938.709-64h-213.12c-23.552 0-42.624 19.115-42.624 42.667v384c0 23.552 19.072 42.667 42.624 42.667h213.12c23.552 0 42.624-19.115 42.624-42.667v-384c0-23.552-19.072-42.667-42.624-42.667zM896.085 320h-127.872v-298.667h127.872v298.667zM938.709 448h-213.12c-23.552 0-42.624 19.115-42.624 42.667v426.667c0 23.552 19.072 42.667 42.624 42.667h213.12c23.552 0 42.624-19.115 42.624-42.667v-426.667c0-23.552-19.072-42.667-42.624-42.667zM896.085 874.667h-127.872v-341.333h127.872v341.333zM597.717-64h-208.341c-23.552 0-48.043 19.115-48.043 42.667v512c0 23.552 24.491 42.667 48.043 42.667h208.341c23.552 0 42.624-19.115 42.624-42.667v-512c0-23.552-19.072-42.667-42.624-42.667zM555.093 448h-128.427v-426.667h128.427v426.667zM597.717 576h-208.341c-23.552 0-48.043 19.115-48.043 42.667v298.667c0 23.552 24.491 42.667 48.043 42.667h208.341c23.552 0 42.624-19.115 42.624-42.667v-298.667c0-23.552-19.072-42.667-42.624-42.667zM555.093 874.667h-128.427v-213.333h128.427v213.333zM256.683-64h-214.101c-23.552 0-42.624 19.115-42.624 42.667v213.333c0 23.552 19.072 42.667 42.624 42.667h214.101c23.552 0 42.624-19.115 42.624-42.667v-213.333c0-23.552-19.072-42.667-42.624-42.667zM214.059 149.333h-128.853v-128h128.853v128zM256.683 280.192h-214.101c-23.552 0-42.624 19.072-42.624 42.667v594.475c0 23.552 19.072 42.667 42.624 42.667h214.101c23.552 0 42.624-19.115 42.624-42.667v-594.475c0-23.595-19.072-42.667-42.624-42.667zM85.205 874.667l0.128-512h128l0.725 512h-128.853z" />
<glyph unicode="&#xe949;" glyph-name="list-1" d="M981.333 789.333h-938.667c-23.552 0-42.667 19.115-42.667 42.667s19.115 42.667 42.667 42.667h938.667c23.552 0 42.667-19.115 42.667-42.667s-19.115-42.667-42.667-42.667zM42.667 618.667h597.376c23.552 0 42.667-19.115 42.667-42.667s-19.115-42.667-42.667-42.667h-597.376c-23.552 0-42.667 19.115-42.667 42.667s19.115 42.667 42.667 42.667zM42.667 362.667h938.667c23.552 0 42.667-19.115 42.667-42.667s-19.115-42.667-42.667-42.667h-938.667c-23.552 0-42.667 19.115-42.667 42.667s19.115 42.667 42.667 42.667zM42.667 106.667h597.376c23.552 0 42.667-19.115 42.667-42.667s-19.115-42.667-42.667-42.667h-597.376c-23.552 0-42.667 19.115-42.667 42.667s19.115 42.667 42.667 42.667z" />
<glyph unicode="&#xe94a;" glyph-name="list-2" d="M981.333 725.333h-768c-23.552 0-42.667 19.115-42.667 42.667s19.115 42.667 42.667 42.667h768c23.552 0 42.667-19.115 42.667-42.667s-19.115-42.667-42.667-42.667zM0 170.667h85.333v-85.333h-85.333v85.333zM0 384h85.333v-85.333h-85.333v85.333zM0 597.333h85.333v-85.333h-85.333v85.333zM0 810.667h85.333v-85.333h-85.333v85.333zM213.333 597.333h597.333c23.552 0 42.667-19.115 42.667-42.667s-19.115-42.667-42.667-42.667h-597.333c-23.552 0-42.667 19.115-42.667 42.667s19.115 42.667 42.667 42.667zM213.333 384h768c23.552 0 42.667-19.115 42.667-42.667s-19.115-42.667-42.667-42.667h-768c-23.552 0-42.667 19.115-42.667 42.667s19.115 42.667 42.667 42.667zM213.333 170.667h597.333c23.552 0 42.667-19.115 42.667-42.667s-19.115-42.667-42.667-42.667h-597.333c-23.552 0-42.667 19.115-42.667 42.667s19.115 42.667 42.667 42.667z" />
<glyph unicode="&#xe94b;" glyph-name="list-3" d="M981.333 405.333h-682.667c-23.552 0-42.667 19.115-42.667 42.667s19.115 42.667 42.667 42.667h682.667c23.552 0 42.667-19.115 42.667-42.667s-19.115-42.667-42.667-42.667zM981.333 618.667h-682.667c-23.552 0-42.667 19.115-42.667 42.667s19.115 42.667 42.667 42.667h682.667c23.552 0 42.667-19.115 42.667-42.667s-19.115-42.667-42.667-42.667zM128 149.333h-85.333c-23.552 0-42.667 19.115-42.667 42.667v85.333c0 23.552 19.115 42.667 42.667 42.667h85.333c23.552 0 42.667-19.115 42.667-42.667v-85.333c0-23.552-19.115-42.667-42.667-42.667zM128 362.667h-85.333c-23.552 0-42.667 19.115-42.667 42.667v85.333c0 23.552 19.115 42.667 42.667 42.667h85.333c23.552 0 42.667-19.115 42.667-42.667v-85.333c0-23.552-19.115-42.667-42.667-42.667zM128 576h-85.333c-23.552 0-42.667 19.115-42.667 42.667v85.333c0 23.552 19.115 42.667 42.667 42.667h85.333c23.552 0 42.667-19.115 42.667-42.667v-85.333c0-23.552-19.115-42.667-42.667-42.667zM298.667 277.333h682.667c23.552 0 42.667-19.115 42.667-42.667s-19.115-42.667-42.667-42.667h-682.667c-23.552 0-42.667 19.115-42.667 42.667s19.115 42.667 42.667 42.667z" />
<glyph unicode="&#xe94c;" glyph-name="list-4" d="M976.939 408.32h-594.517c-23.467 0-42.496 18.987-42.496 42.411s19.029 42.453 42.496 42.453h594.517c23.424 0 42.453-19.029 42.453-42.453s-19.029-42.411-42.453-42.411zM977.323 750.507h-597.333c-23.467 0-40.064 16.256-40.064 39.68s19.029 42.453 42.496 42.453h594.517c23.424 0 42.453-19.029 42.453-42.453s-18.603-39.68-42.069-39.68zM127.616-16c-70.229 0-127.403 57.131-127.403 127.275 0 70.229 57.173 127.317 127.403 127.317 70.272 0 127.403-57.088 127.403-127.317 0-70.144-57.131-127.275-127.403-127.275zM127.616 153.728c-23.424 0-42.453-19.029-42.453-42.453 0-23.381 19.029-42.411 42.453-42.411s42.453 19.029 42.453 42.411c0 23.424-19.029 42.453-42.453 42.453zM127.616 323.456c-70.229 0-127.403 57.088-127.403 127.275s57.173 127.317 127.403 127.317c70.272 0 127.403-57.131 127.403-127.317s-57.131-127.275-127.403-127.275zM127.616 493.184c-23.424 0-42.453-19.029-42.453-42.453 0-23.381 19.029-42.411 42.453-42.411s42.453 19.029 42.453 42.411c0 23.424-19.029 42.453-42.453 42.453zM152.96 722.603c-6.912-9.344-17.365-15.488-28.971-16.939-1.749-0.256-3.499-0.341-5.248-0.341-9.771 0-19.285 3.371-26.923 9.643l-76.075 62.379c-18.133 14.848-20.779 41.6-5.888 59.691 14.933 18.133 41.643 20.779 59.776 5.888l41.472-33.963 67.243 91.264c13.909 18.816 40.533 22.912 59.392 9.003s22.912-40.448 9.003-59.349l-93.781-127.275zM382.421 153.728h594.517c23.424 0 42.453-18.987 42.453-42.453 0-23.424-19.029-42.411-42.453-42.411h-594.517c-23.467 0-42.496 18.987-42.496 42.411 0 23.467 19.029 42.453 42.496 42.453z" />
<glyph unicode="&#xe94d;" glyph-name="lock" horiz-adv-x="853" d="M725.333-64h-597.333c-70.571 0-128 57.387-128 128v426.667c0 70.571 57.429 128 128 128h42.667v85.333c0 141.141 114.816 256 256 256s256-114.859 256-256v-85.333h42.667c70.571 0 128-57.429 128-128v-426.667c0-70.613-57.429-128-128-128zM426.667 874.667c-94.123 0-170.667-76.544-170.667-170.667v-85.333h341.333v85.333c0 94.123-76.544 170.667-170.667 170.667zM768 490.667c0 23.552-19.157 42.667-42.667 42.667h-597.333c-23.509 0-42.667-19.115-42.667-42.667v-426.667c0-23.509 19.157-42.667 42.667-42.667h597.333c23.509 0 42.667 19.157 42.667 42.667v426.667zM469.333 289.195v-97.195c0-23.552-19.115-42.667-42.667-42.667s-42.667 19.115-42.667 42.667v97.195c-25.387 14.805-42.667 42.027-42.667 73.472 0 47.061 38.272 85.333 85.333 85.333s85.333-38.272 85.333-85.333c0-31.445-17.28-58.667-42.667-73.472z" />
<glyph unicode="&#xe94e;" glyph-name="loop" horiz-adv-x="1012" d="M998.856 332.733c-8.224-8.353-18.976-12.508-29.727-12.508-10.794 0-21.546 4.155-29.77 12.508l-55.556 56.242c-11.651-231.691-191.598-410.054-419.906-410.054-23.259 0-42.106 19.147-42.106 42.663 0 23.602 18.847 42.663 42.106 42.663 180.376 0 323.057 139.683 335.565 322.372l-53.2-53.886c-16.448-16.705-43.091-16.705-59.497 0-16.491 16.62-16.491 43.648 0 60.268l126.276 127.989c0 0 0 0 0 0v0c0.043 0.043 0.086 0.043 0.086 0.086 3.898 3.898 8.481 6.982 13.579 9.124 5.14 2.142 10.623 3.298 16.063 3.298 0.043 0 0.043 0 0.043 0s0 0 0 0c5.483 0 10.923-1.157 16.106-3.298 5.054-2.142 9.681-5.226 13.493-9.081 0.043-0.043 0.129-0.086 0.171-0.129v0c0 0 0 0 0 0l126.276-127.989c16.491-16.62 16.491-43.648 0-60.268zM824.306 581.858c-6.597-3.898-13.878-5.697-20.989-5.697-14.564 0-28.699 7.625-36.538 21.332-87.682 153.947-270.542 219.698-439.653 164.741l62.324-16.92c22.445-6.125 35.81-29.47 29.77-52.258-5.054-19.061-22.060-31.612-40.607-31.612-3.641 0-7.282 0.471-10.966 1.456l-166.026 45.147c-18.162 4.926-29.727 21.246-30.541 39.322-1.114 7.796 0.343 15.378 3.341 22.531l41.849 158.53c5.997 22.788 29.127 36.238 51.573 30.198 22.445-6.125 35.767-29.513 29.77-52.258l-18.804-71.276c214.815 80.743 449.676 0.343 560.917-194.94 11.651-20.432 4.712-46.518-15.42-58.298zM96.849 330.462c22.574-86.568 75.431-158.316 148.164-205.22l-14.778 55.985c-5.997 22.745 7.325 46.133 29.77 52.215 22.445 6.040 45.576-7.41 51.573-30.198l44.419-168.211c5.997-22.745-7.325-46.133-29.77-52.215l-165.941-45.062c-3.684-0.985-7.325-1.499-10.923-1.499-18.59 0-35.595 12.593-40.65 31.655-6.040 22.745 7.325 46.133 29.77 52.258l78.387 21.289-2.013 1.157c-98.905 57.826-169.753 152.319-199.437 266.045-29.599 113.383-14.435 231.135 42.749 331.453 11.608 20.432 37.394 27.414 57.484 15.635 20.175-11.779 27.071-37.866 15.42-58.255-45.961-80.7-58.126-175.536-34.225-267.030z" />
<glyph unicode="&#xe94f;" glyph-name="magic-wand-1" horiz-adv-x="1020" d="M979.067 590.787h-81.633c-22.528 0-40.796 18.35-40.796 40.96s18.268 40.96 40.796 40.96h81.633c22.528 0 40.796-18.35 40.796-40.96s-18.268-40.96-40.796-40.96zM885.473 767.201c-7.987-7.987-18.432-12.001-28.836-12.001-10.486 0-20.89 4.014-28.877 12.001-15.933 15.974-15.933 41.943 0 57.917l81.633 81.92c15.933 15.974 41.779 15.974 57.713 0s15.933-41.943 0-57.917l-81.633-81.92zM803.84 562.401l-612.188-614.4c-7.946-8.028-18.391-12.001-28.836-12.001s-20.89 3.973-28.877 12.001l-122.429 122.88c-15.933 15.974-15.933 41.943 0 57.917l612.188 614.4c15.933 16.015 41.779 16.015 57.713 0l122.429-122.88c15.933-15.974 15.933-41.902 0-57.917zM162.816 34.877l411.648 413.123-64.758 64.963-411.607-413.123 64.717-64.963zM652.534 656.282l-85.115-85.402 64.717-64.963 85.156 85.443-64.758 64.922zM693.371 796.16c-22.528 0-40.837 18.35-40.837 40.96v81.92c0 22.61 18.309 40.96 40.837 40.96s40.796-18.35 40.796-40.96v-81.92c0-22.61-18.268-40.96-40.796-40.96zM550.543 755.2c-10.445 0-20.89 4.014-28.877 12.001l-81.633 81.92c-15.933 15.974-15.933 41.943 0 57.917 15.974 15.974 41.779 15.974 57.713 0l81.633-81.92c15.933-15.974 15.933-41.943 0-57.917-7.987-7.987-18.432-12.001-28.836-12.001zM905.871 497.439l81.633-81.92c15.933-15.974 15.933-41.943 0-57.917-7.987-7.987-18.391-12.001-28.877-12.001-10.404 0-20.849 4.014-28.836 12.001l-81.633 81.92c-15.933 15.974-15.933 41.943 0 57.917 15.933 16.015 41.779 16.015 57.713 0z" />
<glyph unicode="&#xe950;" glyph-name="magic-wand-2" horiz-adv-x="1020" d="M892.075 704c0 64-63.744 128-127.488 128 63.744 0 127.488 64 127.488 128 0-64 63.787-128 127.531-128-63.744 0-127.531-64-127.531-128zM837.12 588.501l-637.611-640c-8.277-8.363-19.157-12.501-30.037-12.501s-21.76 4.139-30.037 12.501l-127.531 128c-16.597 16.64-16.597 43.691 0 60.331l637.611 640c16.597 16.683 43.477 16.683 60.117 0l127.488-128c16.64-16.64 16.64-43.648 0-60.331zM102.059 106.667l67.413-67.669 428.715 430.336-67.413 67.669-428.715-430.336zM679.552 686.293l-88.661-88.96 67.413-67.669 88.661 89.003-67.413 67.627zM467.029 704c0 64-63.787 128-127.531 128 63.744 0 127.531 64 127.531 128 0-64 63.744-128 127.531-128-63.787 0-127.531-64-127.531-128zM870.827 490.667c0-74.667 74.411-149.333 148.779-149.333-74.368 0-148.779-74.667-148.779-149.333 0 74.667-74.368 149.333-148.779 149.333 74.411 0 148.779 74.667 148.779 149.333z" />
</font>
</defs>
</svg>
